<svg width="100" height="153" viewBox="0 0 100 153" fill="none" xmlns="http://www.w3.org/2000/svg">
<path d="M36.125 7.41045C39.5848 5.5155 43.2731 3.98094 47.0266 2.73688C51.295 1.31872 55.7536 0.549689 60.2486 1.05188C64.5827 1.52398 68.7284 3.23298 72.4357 5.4618C76.5141 7.9071 80.1353 11.0882 83.3766 14.5706C86.66 18.0904 89.4299 22.0706 91.637 26.3553C93.1595 29.3121 94.4027 32.3892 95.5294 35.5131C96.5867 38.4104 97.5558 41.2969 98.2302 44.3127C99.2154 48.7901 99.5708 53.3849 99.5911 57.968C99.6299 62.7251 99.1089 67.4361 98.1469 72.0941C97.228 76.5426 95.5634 80.7651 93.2429 84.6689C90.8349 88.7054 87.6716 92.3574 83.8143 95.0561C80.0494 97.7016 75.5721 99.2199 71.0764 100.031C66.3362 100.881 61.4235 101.112 56.6396 100.571C52.1356 100.054 47.832 98.4972 43.972 96.1105C40.2357 93.7959 37.066 90.5797 35.2324 86.5512C33.4634 82.67 32.9199 78.3889 32.8966 74.1562C32.8556 69.8927 33.4491 65.5911 34.8303 61.5526C36.1855 57.6113 39.0215 54.2098 42.4729 51.9095C45.7177 49.7489 49.7441 48.4088 53.6563 49.145C55.3786 49.4634 56.9684 50.2276 58.3921 51.2723C60.0503 52.5099 61.3161 54.2405 62.3376 56.0097C63.3857 57.8251 64.1262 59.8181 64.7322 61.8272C65.3649 63.8824 65.7338 66.0489 65.8226 68.1925C65.8979 70.2414 65.7392 72.2406 65.27 74.2346C64.8503 75.9948 63.9574 77.8232 62.5634 78.9973C61.2156 80.1446 59.6267 80.5902 57.8653 80.4174C56.6242 80.2929 55.3143 79.5517 54.6748 78.4441C53.8221 76.9671 54.3333 75.0104 55.8256 74.1489C56.7025 73.6426 57.7513 73.6114 58.6255 73.9887L58.6264 73.9871C58.6387 73.9622 58.651 73.9374 58.6639 73.9139C58.6807 73.8835 58.6988 73.8554 58.7195 73.8319L58.7657 73.7271C58.8818 73.4642 58.9918 73.2152 59.088 72.9422C59.1684 72.6907 59.2335 72.448 59.2807 72.1746C59.3818 71.6034 59.4673 71.0412 59.5198 70.457C59.5498 69.7628 59.5554 69.0621 59.5369 68.3549C59.4691 67.4914 59.3618 66.6304 59.2147 65.7717C58.9983 64.6863 58.7115 63.6212 58.3697 62.5673C58.0527 61.6631 57.7052 60.7766 57.287 59.9103C56.9892 59.3233 56.6605 58.754 56.3011 58.2026C56.066 57.8665 55.8244 57.5548 55.5586 57.2364C55.2774 56.927 54.9897 56.6418 54.6866 56.3655C54.6071 56.2987 54.5258 56.238 54.4446 56.1772L54.3844 56.132C54.3584 56.1125 54.3326 56.0928 54.3069 56.0729L54.2742 56.0473C54.2501 56.0282 54.2262 56.0087 54.2023 55.9887C54.0366 55.8792 53.8555 55.7787 53.6832 55.6935C53.5686 55.64 53.4487 55.5896 53.3266 55.5403C53.2395 55.5052 53.1512 55.4707 53.063 55.4363C52.8599 55.3689 52.6659 55.3168 52.4563 55.2737C52.4285 55.2685 52.401 55.2638 52.3737 55.2594L52.3059 55.2488L52.2186 55.236L52.2157 55.2356C52.1386 55.2246 52.0615 55.2135 51.9822 55.1987C51.8882 55.1971 51.7943 55.1955 51.6999 55.1942C51.5994 55.1928 51.4985 55.1916 51.3966 55.1911C51.2775 55.1904 51.1572 55.1906 51.0346 55.1919C50.6624 55.2222 50.308 55.2833 49.9535 55.3443C49.5771 55.4386 49.2008 55.5328 48.8487 55.6335C48.3274 55.8319 47.8302 56.0369 47.3266 56.2661C46.8254 56.5349 46.3485 56.8103 45.874 57.1253C45.3314 57.5001 44.8309 57.9121 44.3303 58.3242C43.8848 58.725 43.4878 59.1388 43.0843 59.5769C42.7359 60.0037 42.4118 60.437 42.0964 60.8857C41.7616 61.4072 41.4599 61.9507 41.1914 62.5159C40.9537 63.0635 40.7468 63.5932 40.5487 64.1383C40.2708 65.0782 40.0326 66.0157 39.8187 66.9598C39.5557 68.2808 39.4052 69.619 39.2944 70.9548C39.1766 72.7048 39.1316 74.4744 39.2298 76.2433C39.3255 77.4394 39.4519 78.6176 39.6576 79.7911C39.8734 80.7332 40.1134 81.6819 40.3995 82.6038C40.5802 83.0944 40.7763 83.5761 40.9877 84.0489C41.3211 84.6974 41.6852 85.3282 42.0802 85.9412C42.4107 86.4068 42.7653 86.879 43.1353 87.3423C43.5515 87.7789 43.9677 88.2155 44.4212 88.6101C45.1842 89.2567 45.9756 89.846 46.7824 90.4263C47.7171 91.0149 48.6649 91.5549 49.6498 92.0529C50.5992 92.4893 51.5705 92.8927 52.5548 93.2474C53.4551 93.5277 54.3618 93.7837 55.2727 93.9757C56.5517 94.2014 57.8437 94.3785 59.1464 94.4674C60.958 94.5498 62.7803 94.5438 64.5977 94.4586C66.4921 94.3289 68.3727 94.1047 70.231 93.7703C71.6223 93.4798 73.0023 93.1344 74.338 92.712C75.4292 92.3281 76.5179 91.9046 77.5559 91.4285C78.3979 91.0038 79.2133 90.5331 80.002 90.0162C80.7576 89.4774 81.4646 88.9256 82.1782 88.3495C83.0385 87.5656 83.8324 86.738 84.6086 85.8796C85.5818 84.7229 86.4733 83.5313 87.305 82.2716C87.2755 82.3091 87.2482 82.3505 87.2208 82.3919C87.1935 82.4333 87.166 82.4749 87.1364 82.5125C87.9001 81.3126 88.6063 80.0844 89.2462 78.8123C89.8256 77.5769 90.3527 76.3155 90.8062 75.0227C91.3184 73.4345 91.7384 71.8315 92.0897 70.2005L92.0706 70.3099C92.0891 70.2176 92.1073 70.1255 92.1255 70.0331L92.0897 70.2005L92.1048 70.1186C92.1165 70.0583 92.1289 69.9995 92.143 69.9435C92.5907 67.6474 92.9219 65.3318 93.1066 62.9981C93.1056 63.0401 93.1067 63.0824 93.1117 63.1242C93.3265 60.0997 93.327 57.0565 93.1851 54.0139L93.1833 53.9752C93.1833 53.9752 93.1899 53.951 93.181 53.9356L93.1721 53.9202C93.0091 51.4707 92.7361 49.0438 92.2737 46.644C91.857 44.6077 91.3019 42.6513 90.6893 40.6665L90.6571 40.5762C89.4341 37.1548 88.2167 33.7495 86.6622 30.4583C85.6638 28.4091 84.5511 26.4464 83.3154 24.5547C82.1289 22.8192 80.8433 21.1615 79.4503 19.5657L79.4911 19.6076C77.8815 17.8267 76.1834 16.1519 74.3756 14.5776C72.9425 13.3743 71.459 12.2616 69.9009 11.2329C69.9338 11.2576 69.9681 11.2814 70.003 11.3048C70.0254 11.3199 70.048 11.3348 70.0706 11.3497C70.1288 11.3881 70.1871 11.4265 70.2413 11.4672C69.0658 10.71 67.8706 10.0256 66.6317 9.40754C65.6492 8.94917 64.6624 8.55483 63.6538 8.19353C62.8022 7.92628 61.9528 7.69877 61.1058 7.5108C60.2038 7.33416 59.2888 7.20599 58.3697 7.14176C57.6602 7.12066 56.9594 7.11497 56.2368 7.14241C55.2941 7.21493 54.3383 7.33603 53.4003 7.48784C51.6942 7.83697 50.0042 8.32041 48.3253 8.85891C45.7689 9.76049 43.2859 10.8248 40.8562 11.9814L40.8101 12.008C40.7793 12.0258 40.7332 12.0525 40.6936 12.0548L40.6474 12.0815C37.719 13.5466 34.8397 15.1679 32.0977 16.9561L31.8516 17.0982C29.9404 18.4068 28.1067 19.8141 26.3595 21.3357C25.3324 22.2569 24.3562 23.2308 23.431 24.2573C22.8807 24.9032 22.3638 25.5708 21.8888 26.2758C21.4818 26.9211 21.0991 27.5729 20.7495 28.2464C20.2344 29.3439 19.8099 30.4915 19.4249 31.6368C18.814 33.4736 18.3119 35.3544 17.8103 37.2334L17.8048 37.2538L17.7997 37.2723L17.7948 37.2906C17.6428 37.86 17.4909 38.4292 17.3358 38.9968C16.8173 40.8346 16.3652 42.7161 15.9835 44.5775C15.6521 46.3484 15.3934 48.1387 15.2626 49.9373C15.1791 51.4624 15.1837 52.9983 15.2676 54.5293L15.2765 54.5447C15.2765 54.5447 15.27 54.5689 15.2789 54.5843C15.2857 54.6317 15.2887 54.6813 15.2917 54.7309C15.2946 54.7805 15.2977 54.8299 15.3044 54.8772C15.3026 54.8468 15.3021 54.8187 15.3019 54.7911C15.3015 54.7467 15.302 54.7036 15.299 54.6547C15.5302 57.6155 16.0118 60.5611 16.4912 63.4929L16.5005 63.5499L16.5264 63.7079C16.5703 63.9766 16.6143 64.2451 16.6579 64.5136L16.7178 64.8841L16.7672 65.1916C17.1663 67.7305 17.5961 70.2515 18.0568 72.7548C19.5587 79.4774 21.2167 86.1509 23.1256 92.7615C24.9855 99.216 26.4997 105.747 27.7937 112.323C27.9719 113.213 28.0909 114.128 28.2096 115.039C28.2392 115.266 28.2686 115.493 28.299 115.718C28.318 115.86 28.3374 116 28.3572 116.141C28.4071 116.487 28.4251 116.844 28.4431 117.203L28.4433 117.206C28.4548 117.435 28.4663 117.664 28.4862 117.892C28.4916 117.966 28.4975 118.04 28.5037 118.114C28.512 118.215 28.5208 118.316 28.5297 118.417C28.5684 118.859 28.6074 119.305 28.6045 119.732C28.6062 119.931 28.6082 120.129 28.6102 120.328L28.6103 120.334L28.6102 120.339L28.6103 120.343C28.6206 121.362 28.6307 122.376 28.5856 123.394C28.5322 124.758 28.4391 126.124 28.3372 127.476C28.158 129.794 27.9214 132.085 27.4777 134.372C27.2425 135.548 26.9396 136.709 26.6362 137.873L26.6347 137.878C26.3724 138.884 26.1098 139.891 25.8905 140.91C25.8774 140.984 25.8638 141.057 25.848 141.126L25.8741 140.993L25.8849 140.936C25.8652 141.028 25.8459 141.12 25.8269 141.212C25.8317 141.194 25.8364 141.175 25.8409 141.156L25.848 141.126C25.8273 141.23 25.8058 141.333 25.7843 141.437L25.7824 141.446L25.7782 141.467C25.7335 141.682 25.6889 141.897 25.6502 142.114C25.9774 141.864 26.2982 141.637 26.6342 141.402C27.8773 140.5 29.0873 139.576 30.2884 138.636C31.1931 137.929 32.038 137.154 32.8983 136.37L33.5491 135.734C34.4118 134.892 35.2813 134.042 36.1451 133.183C37.2332 132.083 38.3609 130.981 39.5684 130.017C40.8967 128.942 42.2718 127.984 43.7043 127.055C44.2865 126.677 44.8841 126.291 45.4752 125.93C45.5527 125.881 45.6298 125.831 45.7068 125.782C46.3455 125.373 46.9737 124.97 47.7221 124.776C48.4352 124.59 49.1957 124.664 49.8758 124.989C51.4325 125.731 52.2752 127.44 51.5863 129.089C51.183 130.06 50.2475 130.785 49.2261 131.005C48.6756 131.356 48.1225 131.703 47.5696 132.05C47.0986 132.345 46.6277 132.641 46.1587 132.94L46.1494 132.947C45.6407 133.301 45.1321 133.656 44.6386 134.002C44.1619 134.33 43.7066 134.721 43.2582 135.105L43.2559 135.107C43.1802 135.172 43.1047 135.236 43.0293 135.301C41.658 136.585 40.3285 137.906 38.9902 139.212L38.9109 139.29C37.4396 140.724 35.931 142.195 34.2961 143.481C33.075 144.433 31.8389 145.358 30.6028 146.283C30.3292 146.488 30.0558 146.693 29.7824 146.898L29.3703 147.207C27.7012 148.438 26.0587 149.714 24.4759 151.059C24.0151 151.468 23.5454 151.863 22.9891 152.143C22.3471 152.452 21.7133 152.633 20.9989 152.533C20.2206 152.428 19.3837 152.009 18.9378 151.343C18.4944 150.717 18.1609 150.069 18.1926 149.271C18.1995 148.857 18.2463 148.44 18.3082 148.014C18.3256 147.883 18.3439 147.751 18.3625 147.619L18.3549 147.598C17.5842 146.135 16.6648 144.747 15.7477 143.362C15.6042 143.146 15.4607 142.929 15.3179 142.712C15.1076 142.393 14.8988 142.074 14.6931 141.753C14.4074 141.308 14.1213 140.864 13.8349 140.421C13.6062 140.068 13.3776 139.715 13.1489 139.363C12.6335 138.568 12.1183 137.773 11.6046 136.972C10.8284 135.841 10.0521 134.709 9.21437 133.614C8.74032 132.981 8.25646 132.368 7.77114 131.754L7.47574 131.379C7.2356 131.075 6.99559 130.769 6.75669 130.458C5.84138 129.264 4.94137 128.06 4.04796 126.832C3.80366 126.504 3.56341 126.174 3.32347 125.844C2.75567 125.062 2.18933 124.283 1.57423 123.543C1.53594 123.513 1.49547 123.478 1.45703 123.443C1.41986 123.409 1.38464 123.374 1.3552 123.341C0.0918135 122.183 0.163951 120.07 1.31115 118.895C1.52172 118.691 1.73477 118.527 1.96558 118.394C3.15022 117.71 4.68242 117.912 5.75096 118.875C6.58076 119.622 7.2547 120.571 7.9121 121.496C8.10103 121.763 8.28915 122.028 8.47867 122.285L8.48548 122.294C9.18601 123.259 9.88657 124.225 10.6178 125.173C10.8692 125.503 11.1243 125.832 11.3814 126.16C11.6907 126.554 12.0029 126.946 12.3151 127.339C13.3314 128.616 14.3477 129.893 15.2632 131.229C16.8246 133.507 18.3155 135.805 19.8 138.128C19.878 138.248 19.9559 138.368 20.0336 138.488C20.2673 137.499 20.5259 136.511 20.7841 135.524L20.9415 134.922C21.025 134.601 21.1079 134.281 21.1894 133.961C21.4524 132.64 21.6934 131.352 21.8439 130.014C21.9955 128.429 22.1382 126.829 22.2501 125.246C22.2712 124.805 22.2939 124.357 22.3167 123.909C22.3395 123.459 22.3624 123.008 22.3836 122.564C22.4118 121.987 22.3986 121.404 22.3855 120.823C22.3816 120.654 22.3777 120.485 22.3748 120.318C22.3714 120.111 22.3694 119.905 22.3709 119.7C22.3619 119.548 22.3534 119.396 22.345 119.243L22.3354 119.066C22.297 118.355 22.2581 117.635 22.1735 116.942C22.0187 115.821 21.8638 114.7 21.7001 113.564C20.4375 107.113 18.9458 100.693 17.1021 94.3726C15.1842 87.7466 13.5173 81.0578 12.0154 74.3351C11.7185 72.9549 11.4822 71.5541 11.2464 70.1554L11.2442 70.1426C11.2002 69.8814 11.1562 69.6202 11.1119 69.3593C11.0798 69.1541 11.0475 68.949 11.0151 68.744C10.9704 68.4613 10.9255 68.1788 10.8803 67.8964C10.8066 67.4347 10.7323 66.9732 10.6582 66.5117L10.4739 65.364C10.3835 64.7989 10.2936 64.2336 10.2051 63.6675C10.0227 62.5711 9.86192 61.4805 9.70113 60.3899C9.6204 59.8421 9.53959 59.2945 9.4561 58.7461C8.79065 54.2893 8.86967 49.7719 9.55064 45.3377C9.89372 43.1005 10.4556 40.9026 11.018 38.7023L11.1324 38.2549C11.188 38.0368 11.2436 37.8186 11.2987 37.6003C11.662 36.1721 12.0663 34.7549 12.4678 33.3481L12.4681 33.3461L12.4825 33.2962C12.6097 32.8495 12.737 32.4037 12.8624 31.9591C13.4719 29.7816 14.2245 27.6034 15.2004 25.5631C16.1633 23.5713 17.4196 21.6972 18.8886 20.049C22.0283 16.5338 25.7635 13.6594 29.7007 11.099C30.4587 10.5999 31.2498 10.1226 32.0344 9.66959C33.0064 9.10843 34.0271 8.55308 35.0568 7.99293L35.0779 7.98145C35.4264 7.79183 35.776 7.60161 36.125 7.41045Z" fill="#1E4489"/>
<path d="M93.1833 53.9752C93.1769 53.999 93.1768 53.9995 93.1851 54.0139C93.1771 53.9985 93.1833 53.9752 93.1833 53.9752Z" fill="#1E4489"/>
<path d="M93.1186 62.8306C93.1134 62.8857 93.108 62.9418 93.1066 62.9981L93.1186 62.8306Z" fill="#1E4489"/>
<path d="M31.9551 17.0999L31.8935 17.1355C31.9085 17.1395 31.9167 17.1318 31.928 17.1211C31.9351 17.1145 31.9434 17.1067 31.9551 17.0999Z" fill="#1E4489"/>
</svg>
