<svg xmlns="http://www.w3.org/2000/svg" width="1080" height="1235" viewBox="0 0 1080 1235" fill="none">
<path d="M-844.109 1234.23C-796.612 1060.29 -732.801 903.836 -651.798 769.934C-570.538 636.238 -469.521 528.446 -349.695 454.34C-230.125 379.705 -91.628 340.946 53.9712 326.286C90.0552 321.319 127.405 321.24 164.378 319.084C201.599 318.741 238.823 317.756 276.041 318.054C350.732 319.18 425.925 322.967 499.578 324.869C536.916 326.716 573.099 327.149 609.795 328.317C646.235 328.958 681.779 328.07 717.709 327.654C788.669 325.615 858.353 320.936 924.971 309.597L975.159 301.635C991.718 298.522 1007.51 293.824 1023.69 289.918L1072.09 277.617L1118.83 261.883C1134.11 256.129 1150.42 252.167 1165.19 245.035L1209.76 224.49C1224.53 217.359 1240.33 212.34 1254.33 203.624L1297.12 179.061C1410.95 113.03 1513.55 23.117 1609.37 -79.8295C1705.32 -183.154 1789.76 -306.074 1877.66 -427C1865.92 -383.412 1852.76 -341.444 1840.24 -298.477L1820.38 -235.308L1797.56 -175.967L1774.35 -116.775C1766.23 -97.516 1759.14 -76.786 1749.99 -58.9975L1696.14 50.167C1619.76 189.725 1528.36 310.583 1419.41 403.606C1310.72 496.836 1183.46 559.156 1044.48 592.686C975.371 610.564 902.184 617.743 829.003 623.96C792.034 625.474 754.679 626.516 717.33 626.595C679.855 626.089 642.505 626.489 604.907 624.756L380.489 613.846C343.282 611.621 306.971 610.924 270.148 609.491L216.257 609.473C198.292 609.682 179.946 608.776 162.622 609.984C127.463 611.342 91.6631 611.701 57.9075 616.286L6.44427 621.286L-43.6149 629.512C-110.361 640.587 -173.534 659.699 -235.05 682.886C-357.442 730.58 -467.325 806.081 -566.984 902.068C-667.028 997.586 -755.558 1113.98 -843.466 1234.91L-844.109 1234.23Z" fill="url(#paint0_linear_1_2381)"/>
<defs>
<linearGradient id="paint0_linear_1_2381" x1="-917.216" y1="1083.11" x2="1939.62" y2="-298.917" gradientUnits="userSpaceOnUse">
<stop stop-color="#0C1788"/>
<stop offset="1" stop-color="#DC2328"/>
</linearGradient>
</defs>
</svg>