<svg width="71" height="71" viewBox="0 0 71 71" fill="none" xmlns="http://www.w3.org/2000/svg">
<g id="basket-ecommerce-shop">
<path id="Vector" d="M66.9539 20.9641C66.7483 20.7205 66.4921 20.5249 66.203 20.3907C65.914 20.2566 65.5991 20.1872 65.2804 20.1875H54.1789C53.6496 16.2537 51.7122 12.6451 48.7256 10.0306C45.7391 7.41611 41.9059 5.973 37.9367 5.96875H33.5617C29.5924 5.973 25.7593 7.41611 22.7727 10.0306C19.7862 12.6451 17.8487 16.2537 17.3195 20.1875H6.21793C5.89926 20.1872 5.58439 20.2566 5.29534 20.3907C5.00628 20.5249 4.75003 20.7205 4.54449 20.9641C4.33184 21.2066 4.17548 21.4933 4.0866 21.8034C3.99773 22.1135 3.97855 22.4394 4.03043 22.7578L9.86011 55.8984C10.1585 57.5464 11.0283 59.0365 12.3166 60.1067C13.6048 61.1769 15.2291 61.7588 16.9039 61.75H54.5945C56.2652 61.7506 57.8829 61.1637 59.1646 60.092C60.4463 59.0202 61.3103 57.5319 61.6054 55.8875L67.4679 22.7578C67.5198 22.4394 67.5006 22.1135 67.4117 21.8034C67.3229 21.4933 67.1665 21.2066 66.9539 20.9641ZM33.5617 10.3438H37.9367C40.7468 10.3454 43.4678 11.3308 45.6274 13.1288C47.7871 14.9269 49.2492 17.4242 49.7601 20.1875H21.7382C22.2492 17.4242 23.7113 14.9269 25.8709 13.1288C28.0306 11.3308 30.7515 10.3454 33.5617 10.3438ZM57.307 55.1219C57.1894 55.7552 56.8537 56.3274 56.3582 56.739C55.8627 57.1506 55.2386 57.3756 54.5945 57.375H16.9039C16.2698 57.3802 15.6536 57.1648 15.1607 56.7658C14.6679 56.3667 14.3291 55.8088 14.2023 55.1875L8.82105 24.5625H62.6773L57.307 55.1219Z" fill="#858585"/>
</g>
</svg>
