<svg width="76" height="71" viewBox="0 0 76 71" fill="none" xmlns="http://www.w3.org/2000/svg">
<g id="cake">
<g id="Group">
<path id="Vector" d="M69.8782 20.7498C69.0279 18.5229 67.5139 16.53 65.5537 14.7969C62.6062 12.2006 58.6452 10.1551 54.024 8.72598C49.4013 7.30109 44.1104 6.50105 38.4825 6.5C29.9036 6.50645 22.1105 8.34477 16.2708 11.4704C13.3522 13.038 10.9121 14.9376 9.15177 17.1656C8.274 18.2791 7.56886 19.4785 7.08333 20.7498C6.59893 22.0211 6.33789 23.3633 6.33789 24.7355V46.3866C6.33789 47.7579 6.59893 49.1012 7.08333 50.3724C7.93461 52.5993 9.44859 54.5912 11.4078 56.3231C14.3551 58.9194 18.3174 60.9661 22.9388 62.3952C27.5601 63.82 32.8521 64.62 38.4824 64.621C47.059 64.6145 54.8509 62.7764 60.6917 59.6495C63.6093 58.0817 66.0494 56.1845 67.8107 53.9543C68.6885 52.8419 69.3926 51.6414 69.8782 50.3723C70.3636 49.1011 70.6247 47.7577 70.6236 46.3865V24.7355C70.6247 23.3633 70.3636 22.0211 69.8782 20.7498ZM65.6583 46.3865C65.6583 47.2122 65.5041 48.0144 65.198 48.8175C64.6666 50.2155 63.6483 51.6243 62.1401 52.9569C59.8854 54.9552 56.5386 56.7407 52.4649 57.9949C48.3924 59.2511 43.602 59.9878 38.4825 59.9866C30.6778 59.993 23.6395 58.2665 18.7455 55.6326C16.2961 54.3194 14.3934 52.7882 13.1519 51.2098C12.5284 50.4185 12.0682 49.6175 11.7634 48.8175C11.4563 48.0144 11.3045 47.2122 11.3032 46.3865V31.6569C13.7825 34.2811 17.3292 36.4201 21.5663 37.9866C26.4385 39.782 32.2448 40.8116 38.4825 40.8127C46.7967 40.8095 54.3448 38.9873 59.9395 35.941C62.1943 34.7083 64.127 33.2707 65.6584 31.6482L65.6583 46.3865ZM65.6583 25.5407C65.3372 26.5984 64.7919 27.6325 64.0131 28.6418C62.0584 31.1748 58.6209 33.4801 54.1801 35.1133C49.7429 36.7507 44.3243 37.7247 38.4824 37.7236C30.6904 37.7267 23.6542 35.9861 18.6924 33.2718C16.212 31.92 14.2539 30.3297 12.9494 28.6418C12.1694 27.6325 11.6229 26.5985 11.3031 25.5407V24.7354C11.3043 23.9086 11.4561 23.1055 11.7633 22.3045C12.296 20.9042 13.313 19.4955 14.8211 18.164C17.0772 16.166 20.4227 14.3803 24.4965 13.1261C28.5702 11.8678 33.3606 11.1344 38.4825 11.1344C46.2848 11.1279 53.3221 12.8524 58.2172 15.4884C60.6655 16.8016 62.5683 18.3328 63.8108 19.9123C64.432 20.7025 64.8934 21.5035 65.1982 22.3046C65.5044 23.1056 65.6585 23.9087 65.6585 24.7355V25.5407H65.6583Z" fill="#858585"/>
<path id="Vector_2" d="M22.7815 46.0627C21.7921 45.6934 20.6681 46.1434 20.2724 47.0688C19.8777 47.9934 20.361 49.0425 21.3514 49.4107C22.3408 49.779 23.4647 49.3279 23.8593 48.4046C24.2551 47.4801 23.7732 46.4312 22.7815 46.0627Z" fill="#858585"/>
<path id="Vector_3" d="M35.2623 48.5902C34.1982 48.5224 33.2777 49.2741 33.2077 50.2674C33.1351 51.2605 33.9404 52.1195 35.0045 52.1872C36.0688 52.2526 36.9891 51.501 37.0615 50.5078C37.1317 49.5147 36.3264 48.6556 35.2623 48.5902Z" fill="#858585"/>
<path id="Vector_4" d="M28.8921 47.7703H28.8934C27.8499 47.563 26.8237 48.1847 26.6017 49.1576C26.3785 50.1314 27.0445 51.0892 28.0868 51.2965C29.1302 51.5038 30.1565 50.8831 30.3774 49.9104C30.6017 48.9353 29.9356 47.9774 28.8921 47.7703Z" fill="#858585"/>
<path id="Vector_5" d="M17.2478 43.3308C16.3723 42.7617 15.169 42.9647 14.5581 43.7817C13.9495 44.5989 14.167 45.721 15.0424 46.2912C15.9167 46.8581 17.1201 46.6562 17.7298 45.8402C18.3396 45.023 18.1222 43.8988 17.2478 43.3308Z" fill="#858585"/>
<path id="Vector_6" d="M48.0858 47.771C47.0423 47.9782 46.3774 48.9361 46.5994 49.9099C46.8226 50.8828 47.8488 51.5044 48.8922 51.2973C49.9346 51.0878 50.6006 50.1301 50.3763 49.1562C50.1542 48.1833 49.128 47.5617 48.0858 47.771Z" fill="#858585"/>
<path id="Vector_7" d="M54.1913 46.0587C53.2007 46.428 52.7199 47.4771 53.1145 48.4005C53.5102 49.3261 54.6342 49.7761 55.6246 49.4066C56.614 49.0372 57.0972 47.9881 56.7016 47.0648C56.307 46.1402 55.1831 45.6894 54.1913 46.0587Z" fill="#858585"/>
<path id="Vector_8" d="M59.7251 43.3269C58.8507 43.896 58.6356 45.0202 59.2453 45.8373C59.8539 46.6533 61.0585 46.8551 61.9339 46.285C62.8083 45.7159 63.0234 44.5916 62.4137 43.7756C61.8051 42.9597 60.6006 42.7588 59.7251 43.3269Z" fill="#858585"/>
<path id="Vector_9" d="M41.7147 48.59C40.6505 48.6576 39.8452 49.5167 39.9165 50.5099C39.989 51.5031 40.9082 52.2547 41.9724 52.1871C43.0376 52.1205 43.8418 51.2616 43.7694 50.2684C43.6992 49.2751 42.7789 48.5236 41.7147 48.59Z" fill="#858585"/>
<path id="Vector_10" d="M38.4822 12.1133C33.9114 12.1133 31.5898 18.4946 31.5898 21.2284C31.5898 23.9632 33.9114 25.7865 38.4822 25.7865C43.0484 25.7865 45.3722 23.9633 45.3722 21.2284C45.3721 18.4945 43.0483 12.1133 38.4822 12.1133Z" fill="#858585"/>
</g>
</g>
</svg>
