<svg width="50" height="50" viewBox="0 0 50 50" fill="none" xmlns="http://www.w3.org/2000/svg">
<g id="call_svgrepo.com">
<path id="Vector" d="M24.5623 29.6035L17.7498 36.416C16.9998 35.7493 16.2707 35.0619 15.5623 34.3535C13.4165 32.1869 11.479 29.916 9.74984 27.541C8.0415 25.166 6.6665 22.791 5.6665 20.4369C4.6665 18.0619 4.1665 15.791 4.1665 13.6243C4.1665 12.2077 4.4165 10.8535 4.9165 9.60352C5.4165 8.33268 6.20817 7.16602 7.31234 6.12435C8.64567 4.81185 10.104 4.16602 11.6457 4.16602C12.229 4.16602 12.8123 4.29102 13.3332 4.54102C13.8748 4.79102 14.354 5.16602 14.729 5.70768L19.5623 12.5202C19.9373 13.041 20.2082 13.5202 20.3957 13.9785C20.5832 14.416 20.6873 14.8535 20.6873 15.2494C20.6873 15.7494 20.5415 16.2493 20.2498 16.7285C19.979 17.2077 19.5832 17.7077 19.0832 18.2077L17.4998 19.8535C17.2707 20.0827 17.1665 20.3535 17.1665 20.6869C17.1665 20.8535 17.1873 20.9993 17.229 21.166C17.2915 21.3327 17.354 21.4577 17.3957 21.5827C17.7707 22.2702 18.4165 23.166 19.3332 24.2494C20.2707 25.3327 21.2707 26.4369 22.354 27.541C23.104 28.2702 23.8332 28.9785 24.5623 29.6035Z" fill="#DC2328"/>
<path id="Vector_2" d="M45.7698 38.1875C45.7698 38.7708 45.6657 39.375 45.4573 39.9583C45.3948 40.125 45.3323 40.2917 45.249 40.4583C44.8948 41.2083 44.4365 41.9167 43.8323 42.5833C42.8115 43.7083 41.6865 44.5208 40.4157 45.0417C40.3948 45.0417 40.374 45.0625 40.3532 45.0625C39.124 45.5625 37.7907 45.8333 36.3532 45.8333C34.2282 45.8333 31.9573 45.3333 29.5615 44.3125C27.1657 43.2917 24.7698 41.9167 22.3948 40.1875C21.5823 39.5833 20.7699 38.9792 19.999 38.3333L26.8115 31.5208C27.3948 31.9583 27.9157 32.2917 28.3532 32.5208C28.4573 32.5625 28.5823 32.625 28.7282 32.6875C28.8948 32.75 29.0615 32.7708 29.249 32.7708C29.6032 32.7708 29.874 32.6458 30.1032 32.4167L31.6865 30.8542C32.2073 30.3333 32.7073 29.9375 33.1865 29.6875C33.6657 29.3958 34.1448 29.25 34.6657 29.25C35.0615 29.25 35.4782 29.3333 35.9365 29.5208C36.3948 29.7083 36.874 29.9792 37.3948 30.3333L44.2907 35.2292C44.8323 35.6042 45.2073 36.0417 45.4365 36.5625C45.6448 37.0833 45.7698 37.6042 45.7698 38.1875Z" fill="#0C1788"/>
</g>
</svg>
