<svg width="225" height="225" viewBox="0 0 225 225" fill="none" xmlns="http://www.w3.org/2000/svg">
<g clip-path="url(#clip0_414_1659)">
<path d="M104.389 141.691C104.777 145.44 107.942 148.231 111.63 148.231C111.881 148.231 112.134 148.218 112.388 148.192C116.392 147.778 119.303 144.197 118.889 140.193L115.527 107.668C115.113 103.664 111.53 100.757 107.528 101.167C103.524 101.581 100.614 105.163 101.028 109.167L104.389 141.691Z" fill="#EF4343"/>
<path d="M150.003 148.191C150.257 148.217 150.51 148.23 150.761 148.23C154.45 148.23 157.614 145.439 158.002 141.69L161.362 109.164C161.776 105.16 158.866 101.578 154.862 101.165C150.855 100.756 147.276 103.663 146.862 107.666L143.501 140.191C143.087 144.196 145.998 147.777 150.003 148.191Z" fill="#EF4343"/>
<path d="M93.5658 179.873C81.1255 179.873 71.0049 189.994 71.0049 202.434C71.0049 214.877 81.1255 225.001 93.5658 225.001C106.006 225.001 116.128 214.877 116.128 202.434C116.128 189.994 106.006 179.873 93.5658 179.873ZM93.5658 210.422C89.1634 210.422 85.5823 206.838 85.5823 202.433C85.5823 198.031 89.1634 194.449 93.5658 194.449C97.9682 194.449 101.55 198.031 101.55 202.433C101.55 206.838 97.9682 210.422 93.5658 210.422Z" fill="#EF4343"/>
<path d="M168.825 179.873C156.384 179.873 146.263 189.994 146.263 202.434C146.263 214.877 156.383 225.001 168.825 225.001C181.266 225.001 191.388 214.877 191.388 202.434C191.388 189.994 181.266 179.873 168.825 179.873ZM168.825 210.422C164.422 210.422 160.84 206.838 160.84 202.433C160.84 198.031 164.422 194.449 168.825 194.449C173.228 194.449 176.811 198.031 176.811 202.433C176.811 206.838 173.229 210.422 168.825 210.422Z" fill="#EF4343"/>
<path d="M212.422 76.8511C211.042 75.0659 208.913 74.0202 206.656 74.0202H61.3729L55.2718 50.5594C54.436 47.3475 51.5361 45.1055 48.2173 45.1055H18.3444C14.3191 45.1055 11.0557 48.3689 11.0557 52.3942C11.0557 56.4195 14.3191 59.6829 18.3444 59.6829H42.5817L48.6332 82.9542C48.6634 83.0844 48.6974 83.2137 48.7343 83.341L71.2389 169.878C72.0747 173.09 74.9746 175.332 78.2934 175.332H184.1C187.419 175.332 190.319 173.09 191.154 169.878L213.71 83.1427C214.278 80.961 213.802 78.6373 212.422 76.8511ZM178.464 160.757H83.929L65.164 88.5986H197.23L178.464 160.757Z" fill="#EF4343"/>
<path d="M102.582 51.3622C104.005 52.784 105.87 53.4954 107.735 53.4954C109.601 53.4954 111.467 52.783 112.89 51.3593C115.736 48.5118 115.735 43.8966 112.888 41.0511L89.9651 18.1394C87.1177 15.2939 82.5034 15.2948 79.657 18.1413C76.8115 20.9888 76.8124 25.604 79.6589 28.4495L102.582 51.3622Z" fill="#EF4343"/>
<path d="M154.689 53.4933C156.555 53.4933 158.422 52.781 159.846 51.3563L182.734 28.4474C185.58 25.6 185.577 20.9848 182.729 18.1402C179.882 15.2947 175.267 15.2977 172.422 18.1451L149.534 41.0539C146.688 43.9014 146.691 48.5166 149.539 51.3621C150.961 52.7829 152.825 53.4933 154.689 53.4933Z" fill="#EF4343"/>
<path d="M131.203 46.9499H131.205C135.229 46.9499 138.492 43.6875 138.493 39.6631L138.501 7.29064C138.502 3.26533 135.24 0.000971826 131.214 0H131.213C127.188 0 123.925 3.26242 123.924 7.28675L123.916 39.6592C123.915 43.6845 127.177 46.9489 131.203 46.9499Z" fill="#EF4343"/>
</g>
<defs>
<clipPath id="clip0_414_1659">
<rect width="225" height="225" fill="white"/>
</clipPath>
</defs>
</svg>
