<svg width="232" height="210" viewBox="0 0 232 210" fill="none" xmlns="http://www.w3.org/2000/svg">
<g clip-path="url(#clip0_782_373)">
<path d="M203.52 43.3954V46.6917" stroke="#FF95FB" stroke-width="1.5" stroke-linecap="round" stroke-linejoin="round"/>
<path d="M203.2 54.9379C201.778 61.7666 195.707 66.8923 188.441 66.8923H172.014C163.69 66.8923 156.942 60.1624 156.942 51.8613C156.942 43.5602 150.193 36.8303 141.869 36.8303H90.8795C82.5556 36.8303 75.8072 30.1004 75.8072 21.7993V20.0029C75.8072 11.7018 69.0589 4.97186 60.735 4.97186H44.3076C35.9837 4.97186 29.2354 11.7018 29.2354 20.0029V44.7579" stroke="#FF95FB" stroke-width="1.5" stroke-linecap="round" stroke-linejoin="round" stroke-dasharray="12.03 15.04"/>
<path d="M29.2354 48.8837V52.18" stroke="#FF95FB" stroke-width="1.5" stroke-linecap="round" stroke-linejoin="round"/>
<path d="M43.8668 203.962H5.18359" stroke="#303030" stroke-width="1.5" stroke-linecap="round" stroke-linejoin="round"/>
<path d="M1.60851 203.962H0.413086" stroke="#303030" stroke-width="1.5" stroke-linecap="round" stroke-linejoin="round"/>
<path d="M38.7771 197.414H17.1934" stroke="#303030" stroke-width="1.5" stroke-linecap="round" stroke-linejoin="round"/>
<path d="M35.5041 190.871H29.0918" stroke="#303030" stroke-width="1.5" stroke-linecap="round" stroke-linejoin="round"/>
<path d="M175.01 203.962H136.327" stroke="#303030" stroke-width="1.5" stroke-linecap="round" stroke-linejoin="round"/>
<path d="M132.747 203.962H131.557" stroke="#303030" stroke-width="1.5" stroke-linecap="round" stroke-linejoin="round"/>
<path d="M169.921 197.414H148.337" stroke="#303030" stroke-width="1.5" stroke-linecap="round" stroke-linejoin="round"/>
<path d="M203.37 -1.04855e-06C194.082 0.076912 187.257 8.52635 188.331 17.7339C189.339 26.4141 195.548 32.6221 200.726 36.5282C202.362 37.7698 204.632 37.7863 206.273 36.5447C211.925 32.2925 218.817 25.2714 218.817 15.2782C218.817 6.79032 211.892 -0.0769141 203.37 -1.04855e-06ZM203.502 23.0245C199.211 23.0245 195.735 19.5524 195.735 15.2782C195.735 11.0041 199.217 7.52099 203.502 7.52099C207.788 7.52099 211.281 10.9931 211.281 15.2782C211.281 19.5634 207.799 23.0245 203.502 23.0245Z" fill="#00826F"/>
<path d="M115.361 92.2077C114.199 89.0323 111.235 76.4405 110.893 71.8202C110.552 67.2 110.75 63.3323 112.419 60.2284C114.089 57.1244 116.711 55.1466 116.711 55.1466C121.911 55.7729 124.792 58.7011 127.211 68.1449C128.704 73.9738 131.15 83.3242 131.15 83.3242C131.15 83.3242 138.983 84.9504 143.434 86.3403C145.952 87.1204 146.69 89.2905 146.69 89.2905V97.9432C146.69 97.9432 145.687 100.179 142.019 100.498C137.821 100.866 127.767 99.5968 123.536 98.9431C119.306 98.2893 117.482 97.9927 115.367 92.2132L115.361 92.2077Z" fill="white" stroke="#303030" stroke-width="1.5" stroke-linecap="round" stroke-linejoin="round"/>
<path d="M144.614 89.1916C153.687 86.9831 155.56 88.395 156.408 90.9166C157.256 93.4383 158.061 95.3062 153.907 96.1083C149.759 96.9104 145.159 97.4433 145.159 97.4433C145.159 97.4433 141.655 94.614 144.608 89.1971L144.614 89.1916Z" fill="#FFC4B0"/>
<path opacity="0.2" d="M144.614 89.1916C153.687 86.9831 155.56 88.395 156.408 90.9166C157.256 93.4383 158.061 95.3062 153.907 96.1083C149.759 96.9104 145.159 97.4433 145.159 97.4433C145.159 97.4433 141.655 94.614 144.608 89.1971L144.614 89.1916Z" fill="#303030"/>
<path d="M137.678 97.7784C139.633 98.9266 142.509 97.9487 144.002 96.6851C145.55 96.1248 144.382 94.6085 143.589 93.8943C140.901 91.2298 134.059 95.6468 137.683 97.7729L137.678 97.7784Z" fill="#FFC4B0"/>
<path opacity="0.2" d="M137.678 97.7784C139.633 98.9266 142.509 97.9487 144.002 96.6851C145.55 96.1248 144.382 94.6085 143.589 93.8943C140.901 91.2298 134.059 95.6468 137.683 97.7729L137.678 97.7784Z" fill="#303030"/>
<path d="M131.144 83.3242C128.401 82.8738 126.274 82.7914 124.566 83.3242" stroke="#303030" stroke-width="1.5" stroke-linecap="round" stroke-linejoin="round"/>
<path d="M149.136 119.962C150.211 109.881 148.47 106.299 140.956 103.052C133.662 99.899 121.168 98.185 101.782 93.6801H79.3613C74.7669 105.525 76.5077 113.414 85.107 118.424C95.7336 124.616 119.532 123.423 123.124 123.511C128.379 123.643 130.065 123.643 132.202 123.643C131.762 124.714 131.288 125.989 130.858 127.406C129.789 130.944 130.004 139.372 129.833 143.042C129.453 151.42 129.668 153.156 128.77 157.122C128.412 158.694 126.693 160.089 126.275 162.556C126.071 163.77 125.955 165.533 126.82 166.813C127.525 167.857 128.682 168.363 129.944 168.401C133.166 168.5 136.411 168.082 139.601 168.549C141.529 168.83 143.396 169.434 145.302 169.851C147.076 170.241 148.883 170.472 150.695 170.538C152.69 170.615 154.717 170.472 156.64 169.923C158.154 169.489 160.931 168.599 161.129 166.747C161.305 165.116 159.35 164.605 158.121 164.193C154.783 163.078 151.478 161.792 148.398 160.083C145.324 158.38 141.611 155.969 142.245 152.194C142.735 149.261 143.38 147.602 145.17 142.459C146.955 137.317 148.338 127.489 149.142 119.962H149.136Z" fill="#FFC4B0"/>
<path d="M136.284 121.402C134.984 122.281 133.623 123.127 132.202 123.643" stroke="#303030" stroke-width="1.5" stroke-linecap="round" stroke-linejoin="round"/>
<path d="M129.691 146.695C129.024 146.876 128.853 147.179 128.947 148.558C129.041 149.936 129.09 153.974 127.939 156.661C126.787 159.347 125.796 161.693 125.945 164.632C126.093 167.572 127.614 169.181 131.712 169.362C135.811 169.544 136.962 168.626 139.496 169.038C142.03 169.45 146.542 171.291 152.85 170.967C159.157 170.643 161.284 168.429 161.554 166.835C161.824 165.237 160.772 164.358 157.824 163.528C154.877 162.699 150.756 161.287 148.211 159.468C145.666 157.65 143.821 156.271 143.226 155.123C142.631 153.974 142.906 152.332 143.391 150.744C143.931 148.975 144.394 147.706 143.468 147.398L143.099 148.563C143.099 148.563 141.964 150.568 135.888 150.453C131.161 150.359 129.641 148.239 129.641 148.239L129.696 146.701L129.691 146.695Z" fill="#303030"/>
<path d="M149.736 170.082H159.311C161.145 170.082 162.572 168.604 162.539 167.967C162.396 165.171 161.239 163.962 157.129 162.88C154.628 162.221 153.19 161.671 151.031 160.419C148.53 158.968 144.073 155.403 143.054 154.557C141.732 153.452 138.438 153.628 136.846 155.93L149.736 170.077V170.082Z" fill="#F55571"/>
<path d="M149.737 170.082C149.539 168.549 149.076 165.775 148.806 164.248C148.74 163.88 148.668 163.501 148.442 163.204C148.316 163.034 148.145 162.902 147.974 162.77C144.608 160.182 140.983 157.935 137.166 156.084C136.527 155.776 135.833 155.469 135.133 155.595C134.576 155.699 134.114 156.062 133.673 156.414C132.858 157.067 131.657 158.496 129.751 158.424C127.856 158.358 128.401 155.892 128.401 155.892C128.401 155.892 128.506 155.117 128.638 154.2C127.305 154.051 127.195 154.65 126.98 155.348C126.666 156.359 126.545 157.6 126.115 159.941C125.801 161.638 125.465 161.814 125.465 167.582C125.773 169.692 127.905 170.082 131.2 170.082H149.742H149.737Z" fill="#F55571"/>
<path d="M147.049 163.918C148.294 162.325 151.379 160.622 153.715 161.402" stroke="#303030" stroke-width="1.5" stroke-linecap="round" stroke-linejoin="round"/>
<path d="M149.875 159.704C148.762 160.309 148.139 161.083 147.385 162.33" stroke="#303030" stroke-width="1.5" stroke-linecap="round" stroke-linejoin="round"/>
<path d="M151.032 160.424C149.599 160.364 147.578 160.776 144.162 161.347" stroke="#303030" stroke-width="1.5" stroke-linecap="round" stroke-linejoin="round"/>
<path d="M147.06 157.826C145.947 158.43 145.424 159.045 144.669 160.292" stroke="#303030" stroke-width="1.5" stroke-linecap="round" stroke-linejoin="round"/>
<path d="M148.21 158.545C146.778 158.485 144.756 158.897 141.341 159.468" stroke="#303030" stroke-width="1.5" stroke-linecap="round" stroke-linejoin="round"/>
<path d="M144.3 155.644C143.187 156.249 142.504 157.326 141.749 158.573" stroke="#303030" stroke-width="1.5" stroke-linecap="round" stroke-linejoin="round"/>
<path d="M145.39 156.666C143.958 156.606 141.936 157.018 138.521 157.589" stroke="#303030" stroke-width="1.5" stroke-linecap="round" stroke-linejoin="round"/>
<path d="M125.944 161.017C126.264 161.468 126.666 161.847 127.184 162.111C128.219 162.644 129.459 162.753 130.572 162.407C132.318 161.863 133.668 160.287 135.48 160.023C136.797 159.831 138.102 160.386 139.298 160.968C141.507 162.045 144.977 164.061 145.424 164.742C145.87 165.423 146.233 167.56 146.586 169.621" stroke="#303030" stroke-width="1.5" stroke-linecap="round" stroke-linejoin="round"/>
<path d="M161.278 172.203C159.647 172.642 150.64 172.576 150.64 172.576H132.235C128.809 172.576 126.985 172.466 126.109 171.263C125.597 170.555 125.31 169.412 125.459 167.582C126.88 168.835 126.517 169.192 132.373 169.192C138.229 169.192 152.513 169.236 155.62 169.192C157.78 169.159 161.14 169.45 162.534 167.973C163.046 168.654 163.762 171.538 161.278 172.203Z" fill="white" stroke="#303030" stroke-width="1.5" stroke-linecap="round" stroke-linejoin="round"/>
<path d="M149.423 123.336C148.844 127.621 149.748 134.307 149.213 137.46C148.525 141.558 145.638 142.531 145.638 142.531C145.638 142.531 134.279 145.349 129.183 140.234C127.205 138.251 127.635 136.482 127.784 134.351C127.927 132.296 128.169 130.824 128.302 129.445C128.511 127.203 128.671 124.643 128.671 124.643C128.671 124.643 110.233 125.528 99.9806 123.984C95.6507 123.33 84.8313 120.852 80.1432 115.913C74.392 109.859 74.7611 100.877 78.8872 93.4383H107.946C107.946 93.4383 128.897 97.4378 136.89 100.333C144.883 103.228 147.39 105.349 148.866 108.629C150.668 112.645 150.238 117.243 149.423 123.341V123.336Z" fill="#F55571"/>
<path d="M88.3342 201.41C99.124 190.574 99.0627 173.067 88.1973 162.307C77.3319 151.547 59.7768 151.608 48.9869 162.443C38.1971 173.279 38.2584 190.786 49.1238 201.546C59.9893 212.307 77.5443 212.246 88.3342 201.41Z" fill="#303030" stroke="#303030" stroke-width="1.5" stroke-linecap="round" stroke-linejoin="round"/>
<path d="M92.4639 201.296C103.18 190.387 102.999 172.881 92.0601 162.195C81.1215 151.508 63.5672 151.688 52.8516 162.597C42.136 173.506 42.3167 191.012 53.2554 201.698C64.194 212.385 81.7482 212.205 92.4639 201.296Z" fill="#00826F" stroke="#303030" stroke-width="1.5" stroke-linecap="round" stroke-linejoin="round"/>
<path d="M86.2405 195.483C93.7401 188.004 93.7401 175.878 86.2405 168.399C78.7409 160.919 66.5817 160.919 59.0821 168.399C51.5825 175.878 51.5825 188.004 59.0821 195.483C66.5817 202.962 78.7409 202.962 86.2405 195.483Z" fill="#303030" stroke="#303030" stroke-width="1.5" stroke-linecap="round" stroke-linejoin="round"/>
<path d="M79.0008 187.962C82.3417 184.473 82.214 178.944 78.7154 175.612C75.2169 172.28 69.6724 172.408 66.3315 175.897C62.9906 179.386 63.1184 184.915 66.6169 188.247C70.1154 191.578 75.6599 191.451 79.0008 187.962Z" fill="#FF95FB"/>
<path d="M76.1871 181.938C76.1871 183.877 74.606 185.454 72.6614 185.454C70.7168 185.454 69.1357 183.877 69.1357 181.938C69.1357 179.998 70.7168 178.422 72.6614 178.422C74.606 178.422 76.1871 179.998 76.1871 181.938Z" fill="#F55571"/>
<path d="M73.9168 187.245C67.1244 189.085 63.9238 179.515 70.2369 176.62C73.388 175.136 77.5251 177.219 77.9879 180.685C76.6933 176.34 70.6996 175.428 68.3639 179.284C65.94 183.086 69.4381 188.036 73.9168 187.245Z" fill="#F55571"/>
<path d="M71.7247 183.679C71.912 183.844 72.0993 183.976 72.3142 184.091C72.9257 184.415 73.6198 184.503 74.2863 184.366C83.117 182.471 97.1536 176.768 101.93 174.763L100.139 161.704C89.7938 170.939 77.498 176.971 72.5951 178.806V178.817C72.1985 178.977 71.8184 179.218 71.5044 179.564C70.4301 180.757 70.5293 182.602 71.7302 183.679H71.7247Z" fill="white" stroke="#303030" stroke-width="1.5" stroke-linecap="round" stroke-linejoin="round"/>
<path d="M74.6558 181.603C74.6558 182.218 74.1545 182.723 73.532 182.723C72.9095 182.723 72.4082 182.223 72.4082 181.603C72.4082 180.982 72.9095 180.482 73.532 180.482C74.1545 180.482 74.6558 180.982 74.6558 181.603Z" fill="#303030"/>
<path d="M219.657 201.296C230.373 190.387 230.192 172.881 219.253 162.195C208.315 151.509 190.761 151.689 180.045 162.598C169.329 173.506 169.51 191.013 180.449 201.699C191.387 212.385 208.942 212.205 219.657 201.296Z" fill="#303030" stroke="#303030" stroke-width="1.5" stroke-linecap="round" stroke-linejoin="round"/>
<path d="M223.528 201.408C234.318 190.573 234.257 173.066 223.392 162.305C212.526 151.545 194.971 151.606 184.181 162.442C173.391 173.278 173.453 190.785 184.318 201.545C195.184 212.305 212.739 212.244 223.528 201.408Z" fill="#00826F" stroke="#303030" stroke-width="1.5" stroke-linecap="round" stroke-linejoin="round"/>
<path d="M217.303 195.609C224.876 188.205 224.997 176.08 217.573 168.527C210.148 160.973 197.99 160.853 190.416 168.257C182.842 175.661 182.721 187.787 190.146 195.34C197.57 202.893 209.729 203.014 217.303 195.609Z" fill="#303030" stroke="#303030" stroke-width="1.5" stroke-linecap="round" stroke-linejoin="round"/>
<path d="M210.113 188.038C213.498 184.59 213.438 179.06 209.982 175.685C206.525 172.31 200.979 172.369 197.595 175.816C194.211 179.264 194.27 184.794 197.727 188.169C201.184 191.544 206.729 191.485 210.113 188.038Z" fill="#FF95FB"/>
<path d="M207.381 181.938C207.381 183.877 205.8 185.454 203.856 185.454C201.911 185.454 200.33 183.877 200.33 181.938C200.33 179.998 201.911 178.422 203.856 178.422C205.8 178.422 207.381 179.998 207.381 181.938Z" fill="#F55571"/>
<path d="M205.112 187.245C198.32 189.085 195.119 179.515 201.432 176.62C204.583 175.136 208.72 177.219 209.183 180.685C207.889 176.34 201.895 175.428 199.559 179.284C197.135 183.086 200.633 188.036 205.112 187.245Z" fill="#F55571"/>
<path d="M204.302 184.432C204.06 184.487 203.829 184.52 203.592 184.52C202.898 184.52 202.242 184.273 201.724 183.839C194.822 178.026 185.115 166.418 181.843 162.413L189.577 151.727C194.364 164.731 202.374 175.812 205.839 179.729L205.828 179.74C206.109 180.064 206.33 180.46 206.445 180.91C206.831 182.465 205.878 184.053 204.308 184.432H204.302Z" fill="white" stroke="#303030" stroke-width="1.5" stroke-linecap="round" stroke-linejoin="round"/>
<path d="M204.726 181.603C204.726 182.218 204.225 182.723 203.602 182.723C202.98 182.723 202.479 182.223 202.479 181.603C202.479 180.982 202.98 180.482 203.602 180.482C204.225 180.482 204.726 180.982 204.726 181.603Z" fill="#303030"/>
<path d="M176.388 168.884C177.837 170.192 180.101 169.978 181.263 168.412C185.742 162.369 192.595 157.935 201.002 157.935C208.147 157.935 212.466 159.226 214.394 159.99C215.22 160.314 216.14 160.292 216.955 159.924L220.558 158.309C222.651 157.369 223.18 154.65 221.588 153.002C218.415 149.728 212.631 145.426 204.34 145.772C193.102 146.234 185.929 149.101 179.594 158.023C177.909 160.397 176.597 162.781 175.589 165.099C175.022 166.407 175.336 167.923 176.394 168.884H176.388Z" fill="#F55571"/>
<path d="M194.832 147.036C188.662 148.634 183.924 151.903 179.583 158.023C177.898 160.397 176.587 162.781 175.579 165.099C175.011 166.407 175.325 167.923 176.383 168.884C176.779 169.242 177.231 169.472 177.71 169.61L194.826 147.036H194.832Z" fill="#303030"/>
<path d="M205.057 148.585C209.69 148.063 216.377 151.002 219.721 154.793" stroke="white" stroke-width="1.5" stroke-linecap="round" stroke-linejoin="round"/>
<path d="M173.292 106.854L171.689 103.366C171.127 102.14 169.684 101.591 168.445 102.124L162.781 104.552C161.52 105.096 160.941 106.552 161.481 107.81L163.613 112.76L189.307 113.469V109.238C189.307 109.238 185.147 106.882 173.298 106.865L173.292 106.854Z" fill="#303030" stroke="#303030" stroke-width="1.5" stroke-linecap="round" stroke-linejoin="round"/>
<path d="M175.419 103.92L174.482 108.618C176.725 108.656 178.856 108.903 180.867 109.398L182.266 104.085C179.865 104.102 177.419 104.179 175.419 103.92Z" fill="#303030"/>
<path d="M163.458 94.8709L161.224 95.8368L165.46 105.58L167.694 104.614L163.458 94.8709Z" fill="#303030" stroke="#303030" stroke-width="1.5" stroke-linecap="round" stroke-linejoin="round"/>
<path d="M52.4555 138.251L46.4123 135.241L43.8672 143.075L47.3047 143.58L52.4555 138.251Z" fill="#303030" stroke="#303030" stroke-width="1.5" stroke-linecap="round" stroke-linejoin="round"/>
<path d="M41.4601 139.498L42.3855 136.663C42.8483 135.241 44.4073 134.493 45.8121 135.015L46.4235 135.241L43.8729 143.075L43.0466 142.767C41.7245 142.278 41.0304 140.833 41.4656 139.498H41.4601Z" fill="#FF95FB" stroke="#303030" stroke-width="1.5" stroke-linecap="round" stroke-linejoin="round"/>
<path d="M152.182 172.164H114.942V175.274H152.182V172.164Z" fill="#303030" stroke="#303030" stroke-width="1.5" stroke-linecap="round" stroke-linejoin="round"/>
<path d="M104.393 175.274L95.21 160.512L116.055 145.75V175.274H104.393Z" fill="#303030" stroke="#303030" stroke-width="1.5" stroke-linecap="round" stroke-linejoin="round"/>
<path d="M203.993 142.135L195.823 141.476C192.848 141.234 190.557 138.762 190.557 135.784C190.557 132.812 192.848 130.335 195.823 130.093L203.993 129.434C206.918 133.664 206.918 137.894 203.993 142.13V142.135Z" fill="#303030"/>
<path d="M203.133 140.773C205.43 137.449 205.43 134.125 203.133 130.807C201.646 134.131 201.646 137.455 203.133 140.773Z" fill="white"/>
<path d="M47.0632 155.469L47.3424 155.666C47.7793 155.972 47.8844 156.577 47.5767 157.013L36.1341 173.214C35.8264 173.649 35.22 173.754 34.7831 173.447L34.5039 173.251C34.067 172.944 33.9618 172.339 34.2695 171.904L45.7122 155.703C46.0199 155.267 46.6263 155.163 47.0632 155.469Z" fill="#303030" stroke="#303030" stroke-width="1.5" stroke-linecap="round" stroke-linejoin="round"/>
<path d="M66.6903 139.026C66.4589 139.026 66.222 138.927 66.0623 138.74L48.7039 118.6C48.4064 118.254 48.445 117.732 48.792 117.43C49.1391 117.133 49.6624 117.171 49.9654 117.518L67.3238 137.658C67.6213 138.004 67.5827 138.526 67.2357 138.828C67.0814 138.96 66.8886 139.026 66.6958 139.026H66.6903Z" fill="#303030" stroke="#303030" stroke-width="1.5" stroke-linecap="round" stroke-linejoin="round"/>
<path d="M56.0467 139.026C55.8154 139.026 55.5785 138.927 55.4187 138.74L38.0603 118.6C37.7628 118.254 37.8014 117.732 38.1485 117.43C38.4955 117.133 39.0189 117.171 39.3218 117.518L56.6803 137.658C56.9777 138.004 56.9392 138.526 56.5921 138.828C56.4379 138.96 56.2451 139.026 56.0522 139.026H56.0467Z" fill="#303030" stroke="#303030" stroke-width="1.5" stroke-linecap="round" stroke-linejoin="round"/>
<path d="M26.178 116.677H61.5559C62.3161 116.677 62.9331 117.292 62.9331 118.05C62.9331 118.809 62.3161 119.424 61.5559 119.424H26.178C25.4178 119.424 24.8008 118.809 24.8008 118.05C24.8008 117.292 25.4178 116.677 26.178 116.677Z" fill="#303030" stroke="#303030" stroke-width="1.5" stroke-linecap="round" stroke-linejoin="round"/>
<path d="M52.0205 116.677H18.5321C17.177 116.677 16.0752 115.381 16.0752 113.776V80.2258C16.0752 78.6271 17.177 77.325 18.5321 77.325H52.0205C53.3757 77.325 54.4774 78.6216 54.4774 80.2258V113.776C54.4774 115.375 53.3757 116.677 52.0205 116.677Z" fill="#303030" stroke="#303030" stroke-width="1.5" stroke-linecap="round" stroke-linejoin="round"/>
<path d="M65.0595 116.677H31.5712C30.216 116.677 29.1143 115.381 29.1143 113.776V80.2258C29.1143 78.6271 30.216 77.325 31.5712 77.325H65.0595C66.4147 77.325 67.5165 78.6216 67.5165 80.2258V113.776C67.5165 115.375 66.4147 116.677 65.0595 116.677Z" fill="#F55571" stroke="#F55571" stroke-width="1.5" stroke-linecap="round" stroke-linejoin="round"/>
<path d="M48.5771 76.7702H15.0888C13.7336 76.7702 12.6318 75.4736 12.6318 73.8694V62.8874C12.6318 61.2887 13.7336 59.9866 15.0888 59.9866H48.5771C49.9323 59.9866 51.0341 61.2832 51.0341 62.8874V73.8694C51.0341 75.4681 49.9323 76.7702 48.5771 76.7702Z" fill="#303030" stroke="#303030" stroke-width="1.5" stroke-linecap="round" stroke-linejoin="round"/>
<path d="M59.5674 76.7702H26.079C24.7238 76.7702 23.6221 75.4736 23.6221 73.8694V62.8874C23.6221 61.2887 24.7238 59.9866 26.079 59.9866H59.5674C60.9225 59.9866 62.0243 61.2832 62.0243 62.8874V73.8694C62.0243 75.4681 60.9225 76.7702 59.5674 76.7702Z" fill="#FF95FB" stroke="#FF95FB" stroke-width="1.5" stroke-linecap="round" stroke-linejoin="round"/>
<path d="M46.71 59.0747H48.8309C50.2577 59.0747 51.42 60.2284 51.42 61.6568V117.111" stroke="white" stroke-width="1.5" stroke-linecap="round" stroke-linejoin="round"/>
<path d="M43.3105 59.0747H45.4315C46.8582 59.0747 48.0206 60.2284 48.0206 61.6568V117.111" stroke="white" stroke-width="1.5" stroke-linecap="round" stroke-linejoin="round"/>
<path d="M204.478 124.28L169.668 179.74C165.668 186.113 158.633 189.959 151.092 189.893L108.894 189.525C106.398 189.492 104.388 187.464 104.388 184.976V175.274H144.343C147.059 175.274 149.489 173.598 150.458 171.071L164.792 133.472C165.558 131.461 165.564 129.236 164.809 127.22L161.834 119.309C161.03 117.166 161.145 114.738 162.33 112.776C162.98 111.7 163.966 110.689 165.464 110.068C169.971 108.217 176.196 108.387 180.834 109.227C185.473 110.068 187.324 111.123 187.726 110.2C188.122 109.277 185.109 107.755 182.856 107.228L183.357 106.239C183.357 106.239 189.714 107.425 196.738 112.315C200.947 115.243 203.299 118.314 204.506 120.308C205.249 121.534 205.249 123.066 204.489 124.286L204.478 124.28Z" fill="white" stroke="#303030" stroke-width="1.5" stroke-linecap="round" stroke-linejoin="round"/>
<path d="M196.733 112.309C189.709 107.42 182.376 105.497 182.376 105.497L182.09 106.656C184.343 107.184 188.816 109.052 187.726 110.194C187.031 110.92 185.472 110.062 180.834 109.222C176.196 108.381 169.971 108.211 165.464 110.062C163.96 110.678 162.974 111.694 162.33 112.771C162.198 112.996 162.082 113.221 161.972 113.458C170.714 117.303 178.184 120.973 184.652 128.653C189.698 134.647 193.367 140.284 190.21 147.008L204.478 124.28C205.244 123.066 205.244 121.528 204.495 120.303C203.283 118.309 200.93 115.243 196.727 112.315L196.733 112.309Z" fill="#00826F" stroke="#00826F" stroke-width="1.5" stroke-linecap="round" stroke-linejoin="round"/>
<path d="M178.35 110.502C183.219 112.348 188.563 115.908 193.703 121.314C200.077 119.248 202.473 117.501 202.473 117.501" stroke="#303030" stroke-width="1.5" stroke-linecap="round" stroke-linejoin="round"/>
<path d="M169.701 112.749C169.701 113.177 169.354 113.524 168.924 113.524C168.495 113.524 168.147 113.177 168.147 112.749C168.147 112.32 168.495 111.974 168.924 111.974C169.354 111.974 169.701 112.32 169.701 112.749Z" fill="#303030" stroke="#303030" stroke-width="1.5" stroke-linecap="round" stroke-linejoin="round"/>
<path d="M174.317 112.749C174.317 113.177 173.97 113.524 173.54 113.524C173.111 113.524 172.764 113.177 172.764 112.749C172.764 112.32 173.111 111.974 173.54 111.974C173.97 111.974 174.317 112.32 174.317 112.749Z" fill="#303030" stroke="#303030" stroke-width="1.5" stroke-linecap="round" stroke-linejoin="round"/>
<path d="M177.919 129.439C184.657 139.02 182.365 144.552 178.884 148.525C173.826 154.293 165.128 162.786 165.128 162.786" stroke="#303030" stroke-width="1.5" stroke-linecap="round" stroke-linejoin="round"/>
<path d="M202.99 122.028C201.779 120.034 199.426 116.968 195.223 114.04C193.609 112.919 192.033 111.991 190.562 111.227" stroke="white" stroke-width="1.5" stroke-linecap="round" stroke-linejoin="round"/>
<path d="M35.6644 156.595L75.8129 171.879C77.1681 172.395 78.6941 172.203 79.8785 171.362L116.055 145.75C117.79 144.52 118.721 142.443 118.485 140.333L118.402 139.597C118.104 136.966 116.066 134.861 113.438 134.477L73.5819 128.61C68.701 127.89 63.732 129.131 59.7656 132.06L39.2617 147.206C38.6502 147.657 38.6116 148.557 39.1845 149.057L40.4351 150.156L35.3063 153.947C34.3368 154.661 34.5461 156.166 35.6699 156.595H35.6644Z" fill="white" stroke="#303030" stroke-width="1.5" stroke-linecap="round" stroke-linejoin="round"/>
<path d="M42.1982 153.48L79.1406 167.544" stroke="#303030" stroke-width="1.5" stroke-linecap="round" stroke-linejoin="round"/>
<path d="M118.402 139.597C118.105 136.966 116.067 134.861 113.439 134.477L73.5823 128.61C68.7014 127.89 63.7324 129.131 59.7661 132.06L39.2621 147.206C38.6506 147.657 38.612 148.557 39.185 149.057L40.4355 150.156L58.9673 136.471C60.2619 135.515 61.7878 134.922 63.3854 134.752C64.7681 134.603 66.1563 134.779 67.4619 135.257C71.9406 136.905 82.8702 140.938 88.1257 142.893C102.146 148.112 101.193 156.271 93.5298 161.693L116.061 145.745C117.802 144.514 118.727 142.437 118.49 140.328L118.408 139.592L118.402 139.597Z" fill="#00826F" stroke="#00826F" stroke-width="1.5" stroke-linecap="round" stroke-linejoin="round"/>
<path d="M62.3985 126.961L119.608 135.383C121.437 135.653 123.079 134.241 123.079 132.4V123.978C123.079 122.314 121.723 120.962 120.054 120.962H62.8447C61.1755 120.962 59.8203 122.314 59.8203 123.978C59.8203 125.473 60.9221 126.747 62.404 126.961H62.3985Z" fill="#303030" stroke="#303030" stroke-width="1.5" stroke-linecap="round" stroke-linejoin="round"/>
<path d="M71.5215 131.736L112.21 137.724" stroke="white" stroke-width="1.5" stroke-linecap="round" stroke-linejoin="round"/>
<path d="M88.7529 139.515C99.3354 141.339 108.745 142.899 110.832 143.421C112.92 143.943 114.711 146.695 110.832 149.415" stroke="#303030" stroke-width="1.5" stroke-linecap="round" stroke-linejoin="round"/>
<path d="M176.278 85.7909C169.204 86.1096 163.233 87.928 163.304 95.5699C163.376 103.206 171.353 103.931 177.704 104.063C185.709 104.234 190.391 103.618 193.014 101.185C195.884 98.5255 193.823 91.7352 189.686 88.7631C186.326 86.3513 181.99 85.5327 176.278 85.7909Z" fill="#00826F" stroke="#00826F" stroke-width="1.5" stroke-linecap="round" stroke-linejoin="round"/>
<path d="M185.886 86.8293C185.55 86.9721 185.247 87.1589 184.999 87.4116C184.299 88.1148 184.211 89.252 184.492 90.2025C185.483 93.5372 189.202 96.4709 188.502 100.212C188.227 101.701 187.086 102.921 185.764 103.662C185.632 103.739 185.494 103.805 185.362 103.871C188.926 103.519 191.372 102.706 193.014 101.185C195.884 98.5256 193.824 91.7352 189.687 88.7631C188.541 87.939 187.274 87.3072 185.88 86.8348L185.886 86.8293Z" fill="white" stroke="#303030" stroke-width="1.5" stroke-linecap="round" stroke-linejoin="round"/>
<path d="M167.562 90.2519C171.49 88.1313 176.129 87.3567 180.536 88.0874C180.74 88.1203 180.955 88.1643 181.092 88.3126C181.235 88.4609 181.307 88.6752 181.307 88.884C181.307 92.6527 182.624 93.4438 184.541 96.4214C185.604 98.0751 185.604 99.6408 184.342 100.871" stroke="#303030" stroke-width="1.5" stroke-linecap="round" stroke-linejoin="round"/>
<path d="M104.393 181.603C107.898 181.603 110.739 178.769 110.739 175.274C110.739 171.778 107.898 168.945 104.393 168.945C100.888 168.945 98.0469 171.778 98.0469 175.274C98.0469 178.769 100.888 181.603 104.393 181.603Z" fill="white" stroke="#303030" stroke-width="1.5" stroke-linecap="round" stroke-linejoin="round"/>
<path d="M107.517 175.274C107.517 176.993 106.117 178.389 104.393 178.389C102.669 178.389 101.27 176.993 101.27 175.274C101.27 173.554 102.669 172.159 104.393 172.159C106.117 172.159 107.517 173.554 107.517 175.274Z" fill="#F55571" stroke="#F55571" stroke-width="1.5" stroke-linecap="round" stroke-linejoin="round"/>
<path d="M60.6694 136.01C63.4624 136.01 65.7266 133.752 65.7266 130.966C65.7266 128.181 63.4624 125.923 60.6694 125.923C57.8765 125.923 55.6123 128.181 55.6123 130.966C55.6123 133.752 57.8765 136.01 60.6694 136.01Z" fill="white" stroke="#303030" stroke-width="1.5" stroke-linecap="round" stroke-linejoin="round"/>
<path d="M63.1597 130.966C63.1597 132.34 62.0469 133.45 60.6697 133.45C59.2925 133.45 58.1797 132.34 58.1797 130.966C58.1797 129.593 59.2925 128.483 60.6697 128.483C62.0469 128.483 63.1597 129.593 63.1597 130.966Z" fill="#F55571" stroke="#F55571" stroke-width="1.5" stroke-linecap="round" stroke-linejoin="round"/>
<path d="M155.449 97.0257V93.669H167.012C167.8 93.669 168.445 94.3063 168.445 95.0974V95.5974C168.445 96.383 167.806 97.0257 167.012 97.0257H155.449Z" fill="#303030" stroke="#303030" stroke-width="1.5" stroke-linecap="round" stroke-linejoin="round"/>
<path d="M155.278 90.8617H154.936C154.407 90.8617 153.978 91.2897 153.978 91.8176V98.8717C153.978 99.3996 154.407 99.8276 154.936 99.8276H155.278C155.807 99.8276 156.236 99.3996 156.236 98.8717V91.8176C156.236 91.2897 155.807 90.8617 155.278 90.8617Z" fill="#F55571"/>
<path d="M142.062 92.9164H153.978V97.7784H142.062C141.473 97.7784 140.999 97.3059 140.999 96.7181V93.9767C140.999 93.3888 141.473 92.9164 142.062 92.9164Z" fill="#F55571"/>
<path d="M153.978 92.9164V97.7784" stroke="#303030" stroke-width="1.5" stroke-linecap="round" stroke-linejoin="round"/>
<path d="M161.95 82.9616C163.911 85.8404 163.063 89.4059 160.319 94.8722" stroke="#303030" stroke-width="1.5" stroke-linecap="round" stroke-linejoin="round"/>
<path d="M159.179 78.4677C159.068 78.6545 158.98 78.8413 158.903 79.0226C158.369 80.2752 157.978 81.7146 157.812 83.0715C157.559 85.0987 158.743 86.7743 160.567 84.9779C162.087 83.4836 166.263 76.6713 162.313 76.3361C161.002 76.2263 159.829 77.3525 159.184 78.4677H159.179Z" fill="#303030" stroke="#303030" stroke-width="1.5" stroke-linecap="round" stroke-linejoin="round"/>
<path d="M136.284 121.402C137.584 112.749 136.317 107.502 130.251 104.481C126.39 102.552 108.987 99.2562 108.987 99.2562C108.987 99.2562 107.158 95.7347 98.311 93.68H75.9561C71.3617 105.525 72.0282 114.556 80.578 119.649C88.34 124.275 106.42 123.423 110.006 123.511C115.262 123.643 116.947 123.643 119.085 123.643C118.644 124.714 118.17 125.989 117.741 127.406C116.672 130.944 116.887 139.372 116.716 143.042C116.336 151.42 116.551 153.156 115.653 157.122C115.295 158.693 113.576 160.089 113.157 162.556C112.954 163.77 112.838 165.533 113.703 166.813C114.408 167.857 115.565 168.363 116.826 168.401C120.049 168.5 123.294 168.082 126.483 168.549C128.411 168.83 130.279 169.434 132.185 169.851C133.959 170.241 135.766 170.472 137.578 170.538C139.572 170.615 141.6 170.472 143.522 169.923C145.037 169.489 147.814 168.599 148.012 166.747C148.188 165.116 146.238 164.605 145.004 164.193C141.666 163.078 138.36 161.792 135.281 160.083C132.207 158.38 128.494 155.969 129.128 152.194C129.618 149.261 130.119 146.799 131.904 141.657C133.689 136.515 135.154 128.89 136.278 121.402H136.284Z" fill="#FFC4B0"/>
<path d="M129.133 152.194C129.623 149.261 130.124 146.799 131.909 141.657C133.694 136.515 135.237 128.071 137.324 120.792" stroke="#303030" stroke-width="1.5" stroke-linecap="round" stroke-linejoin="round"/>
<path d="M123.173 121.402C121.873 122.281 120.512 123.127 119.091 123.643" stroke="#303030" stroke-width="1.5" stroke-linecap="round" stroke-linejoin="round"/>
<path d="M116.578 146.695C115.912 146.876 115.741 147.179 115.835 148.557C115.928 149.936 115.978 153.974 114.826 156.661C113.675 159.347 112.683 161.693 112.832 164.632C112.981 167.571 114.501 169.181 118.6 169.362C122.699 169.544 123.85 168.626 126.384 169.038C128.918 169.45 133.43 171.291 139.737 170.967C146.045 170.642 148.172 168.428 148.441 166.835C148.711 165.237 147.659 164.358 144.712 163.528C141.765 162.698 137.65 161.287 135.099 159.468C132.548 157.65 130.708 156.271 130.113 155.123C129.519 153.974 129.794 152.332 130.279 150.744C130.819 148.975 131.281 147.706 130.356 147.398L129.987 148.563C129.987 148.563 128.852 150.568 122.776 150.453C118.049 150.359 116.529 148.239 116.529 148.239L116.584 146.701L116.578 146.695Z" fill="#303030"/>
<path d="M136.625 170.082H146.2C148.034 170.082 149.461 168.604 149.428 167.967C149.284 165.171 148.128 163.962 144.018 162.88C141.517 162.221 140.079 161.671 137.92 160.419C135.419 158.968 130.962 155.403 129.943 154.557C128.621 153.452 125.326 153.628 123.734 155.93L136.625 170.077V170.082Z" fill="#F55571"/>
<path d="M149.428 167.973C149.285 165.176 148.128 163.968 144.018 162.885C141.517 162.226 140.08 161.677 137.92 160.424C136.389 159.54 134.339 158.023 132.582 156.661" stroke="#303030" stroke-width="1.5" stroke-linecap="round" stroke-linejoin="round"/>
<path d="M136.626 170.082C136.427 168.549 135.964 165.775 135.695 164.248C135.628 163.88 135.557 163.501 135.331 163.204C135.204 163.034 135.033 162.902 134.863 162.77C131.497 160.182 127.872 157.935 124.054 156.084C123.415 155.776 122.721 155.469 122.022 155.595C121.465 155.699 121.002 156.062 120.562 156.414C119.746 157.067 118.545 158.496 116.639 158.424C114.744 158.358 115.29 155.892 115.29 155.892C115.29 155.892 115.394 155.117 115.527 154.2C114.193 154.051 114.083 154.65 113.868 155.348C113.554 156.359 113.433 157.6 113.004 159.941C112.69 161.638 112.354 161.814 112.354 167.582C112.662 169.692 114.794 170.082 118.088 170.082H136.631H136.626Z" fill="#F55571"/>
<path d="M134.488 164.154C135.733 162.561 138.383 161.045 140.719 161.825" stroke="#303030" stroke-width="1.5" stroke-linecap="round" stroke-linejoin="round"/>
<path d="M136.768 159.704C135.656 160.309 135.033 161.083 134.278 162.33" stroke="#303030" stroke-width="1.5" stroke-linecap="round" stroke-linejoin="round"/>
<path d="M137.92 160.424C136.488 160.364 134.466 160.776 131.051 161.347" stroke="#303030" stroke-width="1.5" stroke-linecap="round" stroke-linejoin="round"/>
<path d="M133.948 157.826C132.836 158.43 132.312 159.045 131.558 160.292" stroke="#303030" stroke-width="1.5" stroke-linecap="round" stroke-linejoin="round"/>
<path d="M135.099 158.545C133.667 158.485 131.645 158.897 128.229 159.468" stroke="#303030" stroke-width="1.5" stroke-linecap="round" stroke-linejoin="round"/>
<path d="M131.188 155.644C130.076 156.249 129.392 157.326 128.638 158.573" stroke="#303030" stroke-width="1.5" stroke-linecap="round" stroke-linejoin="round"/>
<path d="M132.279 156.666C130.846 156.606 128.825 157.018 125.409 157.589" stroke="#303030" stroke-width="1.5" stroke-linecap="round" stroke-linejoin="round"/>
<path d="M112.833 161.017C113.153 161.468 113.555 161.847 114.073 162.111C115.108 162.644 116.348 162.753 117.46 162.407C119.207 161.863 120.556 160.287 122.369 160.023C123.685 159.831 124.991 160.386 126.186 160.968C128.396 162.045 131.866 164.061 132.312 164.742C132.759 165.423 133.122 167.56 133.475 169.621" stroke="#303030" stroke-width="1.5" stroke-linecap="round" stroke-linejoin="round"/>
<path d="M148.166 172.203C146.536 172.642 137.529 172.576 137.529 172.576H119.124C115.697 172.576 113.874 172.466 112.998 171.263C112.486 170.555 112.199 169.412 112.348 167.582C113.769 168.835 113.406 169.192 119.261 169.192C125.117 169.192 139.402 169.236 142.509 169.192C144.668 169.159 148.029 169.45 149.422 167.973C149.935 168.654 150.651 171.538 148.166 172.203Z" fill="white" stroke="#303030" stroke-width="1.5" stroke-linecap="round" stroke-linejoin="round"/>
<path d="M137.65 115.941C137.435 121.891 136.482 130.027 136.4 135.982C136.389 136.861 136.367 137.746 136.218 138.614C136.009 139.866 135.788 140.635 135.237 141.657L135.248 141.668C135.188 141.646 135.133 141.624 135.072 141.597C134.543 142.663 133.673 143.976 131.348 144.47C124.644 145.47 117.24 143.822 115.235 141.3C115.235 141.3 114.1 139.932 113.935 137.729C113.714 134.834 114.634 124.896 114.634 124.896C114.634 124.896 107.517 124.775 102.961 124.709C98.3996 124.638 86.1259 125.088 78.1105 119.649C69.8307 114.024 72.3593 102.624 74.2763 93.6745L107.941 93.4273L110.122 98.4102C118.402 99.9649 123.917 101.091 130.39 103.388C133.216 104.387 135.772 106.728 136.89 109.639C137.65 111.628 137.733 113.809 137.656 115.941H137.65Z" fill="#F55571"/>
<path d="M110.122 98.4157C118.407 99.9704 123.911 101.097 130.389 103.393C133.21 104.393 135.771 106.728 136.884 109.645C137.644 111.634 137.727 113.815 137.65 115.941C137.429 121.891 136.482 130.032 136.399 135.988C136.388 136.867 136.366 137.751 136.218 138.619C136.008 139.872 135.788 140.641 135.237 141.663" stroke="#303030" stroke-width="1.5" stroke-linecap="round" stroke-linejoin="round"/>
<path d="M117.041 117.831C115.51 119.243 114.281 122.753 114.05 125.775" stroke="#303030" stroke-width="1.5" stroke-linecap="round" stroke-linejoin="round"/>
<path d="M122.214 74.1222C123.674 68.2768 124.803 62.0303 120.281 56.4761C117.548 53.1194 107.335 51.9987 101.468 53.3117C93.8325 55.0203 88.6266 58.2012 83.3437 68.3372C79.4379 75.8252 75.2732 83.3133 72.998 92.2352C72.6234 93.7075 72.7226 95.5974 73.604 96.6687C74.4854 97.7399 79.0247 102.393 91.3811 102.437C117.041 102.525 118.887 96.372 118.887 96.372C118.887 96.372 120.584 92.5868 119.708 84.6977C119.708 84.6977 121.283 77.8634 122.214 74.1331V74.1222Z" fill="#00826F"/>
<path d="M106.128 48.3014C106.128 48.3014 98.9943 47.9827 96.0911 48.7189C93.1879 49.4551 92.6315 51.3999 92.6315 51.3999C92.6315 51.3999 89.3427 52.7348 86.2027 56.1355C82.2088 60.4646 87.029 62.4808 87.029 62.4808L103.253 53.6908L106.134 48.2959L106.128 48.3014Z" fill="#00826F"/>
<path d="M105.181 50.0813C100.383 49.6638 97.4024 49.9825 96.9837 51.4053C96.5595 52.8282 102.752 54.6357 102.752 54.6357L105.181 50.0813Z" fill="#303030"/>
<path d="M105.181 58.9318C95.3752 53.2512 88.5718 60.3272 87.0293 62.4863" stroke="#303030" stroke-width="1.5" stroke-linecap="round" stroke-linejoin="round"/>
<path d="M93.0444 54.0753C92.3173 53.482 91.9482 52.5481 92.1961 51.4658" stroke="#303030" stroke-width="1.5" stroke-linecap="round" stroke-linejoin="round"/>
<path d="M125.245 36.3944C126.312 29.8415 121.85 23.667 115.279 22.6033C108.708 21.5396 102.516 25.9895 101.45 32.5425C100.383 39.0954 104.845 45.2699 111.416 46.3335C117.987 47.3972 124.179 42.9473 125.245 36.3944Z" fill="#303030"/>
<path d="M125.365 39.8244C125.425 38.1214 125.436 37.8577 125.536 35.6821C125.706 31.9244 124.175 29.1775 124.175 29.1775C122.913 27.9359 115.058 24.9802 109.642 29.9411C110.304 33.3418 108.568 35.8689 108.563 35.8689C109.262 36.9841 109.576 38.7147 109.279 39.8684C108.992 40.9726 107.461 40.665 106.899 39.6376C106.266 38.4785 104.789 37.4566 103.428 37.3357C101.66 37.1819 100.388 38.1049 100.041 39.363C99.6329 40.8518 100.553 42.0439 101.737 42.6592C102.922 43.2745 104.552 43.4119 105.748 42.7746C105.638 44.659 106.111 45.9445 106.827 46.9773L102.977 54.1962C102.977 54.1962 108.37 58.2396 113.008 59.3823C117.25 60.4261 115.515 56.0476 115.515 56.0476L116.936 52.6359C118.941 52.8062 120.759 52.5755 122.434 51.6635C124.599 50.4769 125.491 48.3947 125.569 45.538C125.613 43.9997 125.304 41.3572 125.359 39.8244H125.365Z" fill="#FFC4B0"/>
<path d="M115.923 44.9886C117.262 45.8236 118.997 45.9006 120.297 45.549" stroke="#303030" stroke-width="1.5" stroke-linecap="round" stroke-linejoin="round"/>
<path d="M121.349 37.2808C121.558 36.5447 122.18 36.1656 122.875 36.0832C123.563 36.0063 124.555 36.1711 124.731 37.2808C124.467 38.4016 122.274 38.7861 121.354 37.2808H121.349Z" fill="white"/>
<path d="M124.202 37.7973C123.965 38.2807 123.359 38.4785 122.847 38.2368C122.334 37.995 122.114 37.4017 122.351 36.9182C122.588 36.4348 123.194 36.237 123.706 36.4787C124.218 36.7205 124.439 37.3138 124.202 37.7973Z" fill="#303030"/>
<path d="M122.279 36.8908L123.276 37.3577L122.142 37.4347L122.279 36.8908Z" fill="white"/>
<path d="M124.841 37.0666C124.417 36.2645 123.629 36.0887 122.935 36.1656C122.247 36.2425 121.536 36.7589 121.349 37.2753" stroke="#303030" stroke-width="1.5" stroke-linecap="round" stroke-linejoin="round"/>
<path d="M113.014 37.1874C113.278 36.3469 114.099 35.9239 115.008 35.8414C115.917 35.7645 117.228 35.9733 117.476 37.2424C117.145 38.5224 114.259 38.929 113.014 37.1874Z" fill="white"/>
<path d="M116.815 37.8742C116.545 38.429 115.851 38.6543 115.267 38.3741C114.683 38.0939 114.43 37.4182 114.7 36.8633C114.97 36.3084 115.664 36.0832 116.248 36.3634C116.832 36.6435 117.085 37.3193 116.815 37.8742Z" fill="#303030"/>
<path d="M114.617 36.8358L115.757 37.3687L114.463 37.4621L114.617 36.8358Z" fill="white"/>
<path d="M117.619 37.0061C117.046 36.0777 115.999 35.8634 115.091 35.9403C114.182 36.0173 113.251 36.5941 113.014 37.1874" stroke="#303030" stroke-width="1.5" stroke-linecap="round" stroke-linejoin="round"/>
<path d="M119.889 34.7867C120.638 36.4623 121.663 38.4675 122.131 39.6102C122.644 40.8408 122.192 42.9284 119.3 42.4065" stroke="#303030" stroke-width="1.5" stroke-linecap="round" stroke-linejoin="round"/>
<path d="M101.936 39.4673C102.266 39.2586 103.065 39.1267 103.847 39.3794C104.629 39.6322 105.257 40.2859 105.456 41.0496" stroke="#303030" stroke-width="1.5" stroke-linecap="round" stroke-linejoin="round"/>
<path d="M103.247 40.3958C103.489 40.242 104.343 39.8684 105.131 40.3464" stroke="#303030" stroke-width="1.5" stroke-linecap="round" stroke-linejoin="round"/>
<path d="M112.254 34.8581C113.35 33.6385 115.278 33.0946 117.003 33.4681" stroke="#303030" stroke-width="1.5" stroke-linecap="round" stroke-linejoin="round"/>
<path d="M122.181 33.6549C123.641 33.4077 124.985 33.7703 125.508 34.4186" stroke="#303030" stroke-width="1.5" stroke-linecap="round" stroke-linejoin="round"/>
<path d="M102.982 54.2017C102.982 54.2017 108.59 58.4759 113.014 59.3878C116.325 60.0691 116.049 57.8111 115.713 56.6244" stroke="#303030" stroke-width="1.5" stroke-linecap="round" stroke-linejoin="round"/>
<path d="M116.942 52.6414C111.907 51.7734 109.857 49.7627 108.381 48.1036C108.761 50.8395 111.807 53.883 116.082 54.7016L116.942 52.636V52.6414Z" fill="#303030"/>
<path d="M100.382 44.0986L104.062 46.4005C105.621 47.3729 107.649 47.1147 108.905 45.7742C109.918 44.6919 110.216 43.1207 109.665 41.7418L107.847 37.2039L110.21 32.1881C110.21 32.1881 120.264 28.5402 127.089 31.2541C125.921 20.6951 112.337 16.2396 103.605 22.7552C94.3557 29.6609 97.6775 39.4674 99.0602 42.5823C99.3412 43.2086 99.8039 43.7305 100.382 44.0986Z" fill="#F55571"/>
<path d="M100.383 44.0986L104.063 46.4005C105.622 47.3729 107.649 47.1147 108.905 45.7742C109.919 44.6919 110.216 43.1207 109.665 41.7418L107.847 37.2039L110.211 32.1881C110.211 32.1881 120.264 28.5402 127.09 31.2541" stroke="#303030" stroke-width="1.5" stroke-linecap="round" stroke-linejoin="round"/>
<path d="M106.128 42.9779C106.128 43.4998 105.704 43.9228 105.181 43.9228C104.658 43.9228 104.233 43.4998 104.233 42.9779C104.233 42.456 104.658 42.033 105.181 42.033C105.704 42.033 106.128 42.456 106.128 42.9779Z" fill="#303030"/>
<path d="M102.829 41.4891C102.829 42.011 102.404 42.434 101.881 42.434C101.358 42.434 100.934 42.011 100.934 41.4891C100.934 40.9671 101.358 40.5441 101.881 40.5441C102.404 40.5441 102.829 40.9671 102.829 41.4891Z" fill="#303030"/>
<path d="M110.21 32.1881C115.493 33.5066 121.189 34.9789 125.921 34.8141C130.653 34.6493 131.86 33.5011 127.089 31.2541C123.167 29.0676 115.559 30.1389 110.21 32.1881Z" fill="#303030"/>
<path d="M112.767 21.8598C118.27 21.8543 122.187 24.0957 124.22 28.2655" stroke="white" stroke-width="1.5" stroke-linecap="round" stroke-linejoin="round"/>
<path d="M96.9282 61.0414C101.418 60.3712 102.927 61.7062 106.425 70.8369C108.677 76.7116 110.928 82.6943 113.179 88.7851C116.171 88.7191 124.098 89.1696 127.089 89.1751C129.915 89.1806 132.736 89.1861 135.562 89.2081C138.112 89.2301 140.669 88.6257 143.208 88.3346C145.252 88.1038 147.455 87.4171 149.229 88.45C149.874 88.829 150.678 89.4718 151.251 90.4881C151.725 91.3287 152.017 92.2462 152.177 93.1911C152.248 93.6086 152.248 94.0591 152.033 94.4217C151.78 94.8502 150.832 95.2952 150.48 94.7678C150.524 95.4051 150.557 96.0534 150.359 96.6687C150.155 97.2785 149.676 97.8388 149.036 97.9597C148.403 98.0806 147.665 97.6136 147.654 96.9653C147.577 97.5422 147.384 98.1245 146.971 98.5311C146.558 98.9376 145.891 99.1244 145.373 98.8607C144.569 98.4486 144.558 97.3389 144.58 96.4379C144.64 94.169 142.239 94.0042 140.927 95.5369C140.129 96.4709 139.919 97.1027 138.977 97.652C138.068 98.1849 137.165 98.3003 135.892 98.2454C134.625 98.1849 133.7 97.8663 132.218 98.0586C129.221 98.4486 125.596 99.2947 121.96 99.8935C118.606 100.448 114.986 101.338 111.565 101.152C108.293 100.976 103.644 103.278 100.239 95.5644C96.471 87.0216 93.0334 77.0394 93.0334 77.0394C91.6342 70.749 92.4605 64.0026 96.9282 61.025V61.0414Z" fill="#FFC4B0"/>
<path d="M145.302 91.5649C146.26 92.1528 147.131 93.0373 147.522 94.0866C147.913 95.1359 147.836 96.3555 147.819 97.4763" stroke="#303030" stroke-width="1.5" stroke-linecap="round" stroke-linejoin="round"/>
<path d="M147.434 89.675C148.348 90.2025 149.048 91.043 149.527 91.9769C150.006 92.9109 150.282 93.9382 150.469 94.9766" stroke="#303030" stroke-width="1.5" stroke-linecap="round" stroke-linejoin="round"/>
<path d="M97.4574 94.7733C96.262 91.5045 91.4968 80.407 90.8412 76.3032C90.1912 72.1993 90.1802 67.5955 91.8934 64.3981C93.6122 61.2008 95.7441 59.7065 97.7659 59.4373C103.302 58.6956 106.156 65.7441 108.315 71.4467C110.475 77.1492 113.571 86.5985 113.571 86.5985C113.571 86.5985 123.553 86.4612 127.117 86.8128C129.888 87.0875 130.252 88.7961 130.252 88.7961L127.183 88.7851C127.183 88.7851 125.712 90.2135 125.586 93.5592C125.459 96.9049 127.299 99.2507 127.299 99.2507L129.315 98.8442C129.315 98.8442 129.475 101.564 125.101 102.388C120.837 103.19 111.621 103.162 106.977 102.69C102.371 102.223 99.6279 100.707 97.4574 94.7623V94.7733Z" fill="white" stroke="#303030" stroke-width="1.5" stroke-linecap="round" stroke-linejoin="round"/>
<path d="M113.807 86.6095C110.331 86.9501 107.268 88.2632 105.406 91.2133" stroke="#303030" stroke-width="1.5" stroke-linecap="round" stroke-linejoin="round"/>
<path d="M127.183 88.7906L131.843 88.818C131.843 88.818 130.775 89.9388 130.411 92.8065C130.047 95.6743 131.722 98.4212 131.722 98.4212L127.293 99.2562C125.062 96.1303 125.045 91.4605 127.177 88.7906H127.183Z" fill="white" stroke="#303030" stroke-width="1.5" stroke-linecap="round" stroke-linejoin="round"/>
</g>
<defs>
<clipPath id="clip0_782_373">
<rect width="232" height="210" fill="white"/>
</clipPath>
</defs>
</svg>
