<svg width="137" height="136" viewBox="0 0 137 136" fill="none" xmlns="http://www.w3.org/2000/svg">
<g filter="url(#filter0_d_1_2211)">
<circle cx="68.5469" cy="58.125" r="57.6133" fill="white"/>
</g>
<path fill-rule="evenodd" clip-rule="evenodd" d="M54.4258 57.4363L72.834 36.3652L73.5871 37.0232L55.4663 57.7652L73.5871 78.5073L72.834 79.1653L54.4258 58.0942L54.8023 57.7652L54.4258 57.4363Z" fill="black"/>
<path d="M72.834 36.3652L73.8209 35.2356L72.6913 34.2487L71.7044 35.3784L72.834 36.3652ZM54.4258 57.4363L53.2961 56.4494L52.3093 57.579L53.4389 58.5659L54.4258 57.4363ZM73.5871 37.0232L74.7167 38.01L75.7036 36.8804L74.574 35.8935L73.5871 37.0232ZM55.4663 57.7652L54.3366 56.7784L53.4745 57.7652L54.3366 58.7521L55.4663 57.7652ZM73.5871 78.5073L74.574 79.637L75.7036 78.6501L74.7167 77.5205L73.5871 78.5073ZM72.834 79.1653L71.7044 80.1521L72.6913 81.2818L73.8209 80.2949L72.834 79.1653ZM54.4258 58.0942L53.4389 56.9646L52.3093 57.9514L53.2961 59.0811L54.4258 58.0942ZM54.8023 57.7652L55.7892 58.8949L57.0822 57.7652L55.7892 56.6356L54.8023 57.7652ZM71.7044 35.3784L53.2961 56.4494L55.5554 58.4232L73.9637 37.3521L71.7044 35.3784ZM74.574 35.8935L73.8209 35.2356L71.8471 37.4949L72.6002 38.1528L74.574 35.8935ZM56.5959 58.7521L74.7167 38.01L72.4575 36.0363L54.3366 56.7784L56.5959 58.7521ZM54.3366 58.7521L72.4575 79.4942L74.7167 77.5205L56.5959 56.7784L54.3366 58.7521ZM72.6002 77.3777L71.8471 78.0356L73.8209 80.2949L74.574 79.637L72.6002 77.3777ZM73.9637 78.1784L55.5554 57.1073L53.2961 59.0811L71.7044 80.1521L73.9637 78.1784ZM55.4127 59.2238L55.7892 58.8949L53.8154 56.6356L53.4389 56.9646L55.4127 59.2238ZM53.4389 58.5659L53.8154 58.8949L55.7892 56.6356L55.4127 56.3067L53.4389 58.5659Z" fill="black"/>
<defs>
<filter id="filter0_d_1_2211" x="0.933594" y="0.511719" width="135.227" height="135.227" filterUnits="userSpaceOnUse" color-interpolation-filters="sRGB">
<feFlood flood-opacity="0" result="BackgroundImageFix"/>
<feColorMatrix in="SourceAlpha" type="matrix" values="0 0 0 0 0 0 0 0 0 0 0 0 0 0 0 0 0 0 127 0" result="hardAlpha"/>
<feOffset dy="10"/>
<feGaussianBlur stdDeviation="5"/>
<feComposite in2="hardAlpha" operator="out"/>
<feColorMatrix type="matrix" values="0 0 0 0 0 0 0 0 0 0 0 0 0 0 0 0 0 0 0.25 0"/>
<feBlend mode="normal" in2="BackgroundImageFix" result="effect1_dropShadow_1_2211"/>
<feBlend mode="normal" in="SourceGraphic" in2="effect1_dropShadow_1_2211" result="shape"/>
</filter>
</defs>
</svg>
