<svg width="73" height="75" viewBox="0 0 73 75" fill="none" xmlns="http://www.w3.org/2000/svg">
<g id="Group 615">
<g id="Vector">
<path d="M37.2447 30.6817V45.2045H57.2894C56.4092 49.8749 53.7679 53.8296 49.8064 56.4886L61.8941 65.9319C68.9368 59.3867 73 49.7729 73 38.3525C73 35.6935 72.763 33.1364 72.3227 30.6821L37.2447 30.6817Z" fill="#4285F4"/>
<path d="M16.3714 44.6376L13.6452 46.7387L3.99509 54.3068C10.1236 66.5453 22.6845 75 37.2439 75C47.2999 75 55.7316 71.659 61.8941 65.9319L49.8064 56.4886C46.4882 58.7386 42.2549 60.1024 37.2439 60.1024C27.5602 60.1024 19.3326 53.5229 16.3866 44.6592L16.3714 44.6376Z" fill="#34A853"/>
<path d="M3.99511 20.6932C1.4558 25.7384 0 31.4317 0 37.4998C0 43.5678 1.45577 49.2615 3.99509 54.3068C3.99509 54.3407 16.3878 44.6245 16.3878 44.6245C15.6429 42.3746 15.2027 39.9883 15.2027 37.4994C15.2027 35.0104 15.6429 32.6242 16.3878 30.3742L3.99511 20.6932Z" fill="#FBBC05"/>
<path d="M37.2447 14.9318C42.73 14.9318 47.6056 16.8408 51.4995 20.5227L62.165 9.78422C55.6979 3.71614 47.301 0 37.2447 0C22.6853 0 10.1236 8.42042 3.99511 20.6932L16.3878 30.3742C19.3334 21.5105 27.561 14.9318 37.2447 14.9318Z" fill="#EA4335"/>
</g>
</g>
</svg>
