<svg width="59" height="75" viewBox="0 0 59 75" fill="none" xmlns="http://www.w3.org/2000/svg">
<g id="Group 665">
<path id="XMLID_34_-path" d="M40.8276 11.7898C38.0325 14.8786 33.5602 17.3149 29.088 16.9668C28.5289 12.7904 30.7185 8.3529 33.2807 5.61211C36.0759 2.43626 40.9674 0.174019 44.9272 0C45.393 4.35047 43.5762 8.61393 40.8276 11.7898Z" fill="black"/>
<path id="XMLID_34_-path_2" d="M43.8576 19.0227C37.8951 18.6734 32.7904 22.4719 29.9593 22.4719C27.0852 22.4719 22.7527 19.1973 18.0341 19.2847C11.9 19.372 6.19479 22.9085 3.06337 28.5407C-3.37106 39.8051 1.39041 56.4835 7.61036 65.6522C10.656 70.1929 14.3022 75.1702 19.1065 74.9955C23.6535 74.8209 25.4552 71.983 30.9459 71.983C36.4795 71.983 38.0667 74.9955 42.871 74.9082C47.847 74.8209 50.9784 70.3675 54.024 65.8268C57.4986 60.6749 58.9142 55.6539 59 55.3919C58.9142 55.3046 49.3913 51.5935 49.3055 40.4164C49.2197 31.073 56.8123 26.6196 57.1555 26.3577C52.8658 19.8959 46.174 19.1973 43.8576 19.0227Z" fill="black"/>
</g>
</svg>
