<svg width="263" height="274" viewBox="0 0 263 274" fill="none" xmlns="http://www.w3.org/2000/svg">
<path d="M131.767 166.656L109.637 144.532H43.4941V0.085144H220.041V144.532H153.898L131.767 166.656Z" fill="#FF6759"/>
<path d="M131.768 166.656L153.899 144.532H220.041V0.085144H131.768V166.656Z" fill="#E63A3A"/>
<path d="M131.767 204.076L147.817 238.503L131.767 274H43.4941V204.076L87.6308 188.027L131.767 204.076Z" fill="#FFBE40"/>
<path d="M220.041 204.076V274H131.768V204.076L175.904 188.027L220.041 204.076Z" fill="#FF9F40"/>
<path d="M131.767 189.311L147.817 197.131L131.767 204.076H43.4941L0 160.582H103.038L131.767 189.311Z" fill="#FFDF40"/>
<path d="M155.841 56.2591C155.841 65.2469 150.864 73.4323 143 77.6047C141.076 78.5687 139.791 81.1361 139.791 84.0251H123.741C123.741 76.8027 126.629 70.2223 131.766 65.8889C132.73 64.9259 134.013 64.1234 135.296 63.3215H135.457C138.186 62.037 139.791 59.3091 139.791 56.2596C139.791 51.7652 136.26 48.2348 131.766 48.2348C127.272 48.2348 123.741 51.7652 123.741 56.2596H107.691C107.691 42.9378 118.444 32.1851 131.766 32.1851C145.088 32.1851 155.841 42.9373 155.841 56.2591Z" fill="#ECF2FF"/>
<path d="M123.742 96.3833H139.792V112.433H123.742V96.3833Z" fill="#ECF2FF"/>
<path d="M263 161.117L219.506 204.611H131.232V189.846L159.962 161.117H263Z" fill="#FFBE40"/>
<path d="M131.768 96.3833H139.792V112.433H131.768V96.3833Z" fill="#D9E5FF"/>
<path d="M155.842 56.2591C155.842 65.2469 150.866 73.4323 143.002 77.6047C141.078 78.5687 139.792 81.1361 139.792 84.0251H131.768V65.8889C132.732 64.9259 134.015 64.1234 135.298 63.3215H135.458C138.187 62.037 139.792 59.3091 139.792 56.2596C139.792 51.7652 136.262 48.2348 131.768 48.2348V32.1845C145.09 32.1845 155.842 42.9373 155.842 56.2591Z" fill="#D9E5FF"/>
</svg>
