<svg width="70" height="71" viewBox="0 0 70 71" fill="none" xmlns="http://www.w3.org/2000/svg">
<g id="home" clip-path="url(#clip0_1182_2028)">
<path id="Vector" d="M63 31.8906V64.4004C62.9999 65.3522 62.6075 66.31 61.8359 67.0762L61.6768 67.2266C60.7931 68.0219 59.5537 68.4999 58.2227 68.5H10.7773C9.52958 68.4999 8.36232 68.0798 7.49316 67.3721L7.32324 67.2266C6.44656 66.4375 6.00012 65.4156 6 64.4004V31.8906L34.5 11.9404L63 31.8906Z" stroke="#1E4489" stroke-width="4" stroke-linecap="round" stroke-linejoin="round"/>
<g id="Vector_2">
<mask id="path-2-inside-1_1182_2028" fill="white">
<path d="M24 70.5V40.5H45V70.5"/>
</mask>
<path d="M20 70.5C20 72.7091 21.7909 74.5 24 74.5C26.2091 74.5 28 72.7091 28 70.5H20ZM24 40.5V36.5C21.7909 36.5 20 38.2909 20 40.5H24ZM45 40.5H49C49 38.2909 47.2091 36.5 45 36.5V40.5ZM41 70.5C41 72.7091 42.7909 74.5 45 74.5C47.2091 74.5 49 72.7091 49 70.5H41ZM28 70.5V40.5H20V70.5H28ZM24 44.5H45V36.5H24V44.5ZM41 40.5V70.5H49V40.5H41Z" fill="#1E4489" mask="url(#path-2-inside-1_1182_2028)"/>
</g>
</g>
<defs>
<clipPath id="clip0_1182_2028">
<rect width="70" height="70" fill="white" transform="translate(0 0.5)"/>
</clipPath>
</defs>
</svg>
