<svg width="95" height="95" viewBox="0 0 95 95" fill="none" xmlns="http://www.w3.org/2000/svg">
<path fill-rule="evenodd" clip-rule="evenodd" d="M47.3564 11.8242C37.7213 11.8242 36.5151 11.8644 32.731 12.0371C28.9541 12.2097 26.3738 12.8104 24.1176 13.6879C21.7525 14.5771 19.6074 15.9725 17.8337 17.7794C16.0297 19.5511 14.6334 21.6947 13.7421 24.0609C12.8694 26.3172 12.2664 28.8998 12.0937 32.6768C11.9234 36.4585 11.8809 37.6623 11.8809 47.2998C11.8809 56.9373 11.9211 58.1411 12.0937 61.9252C12.2664 65.7022 12.8671 68.2824 13.7445 70.5387C14.6338 72.9037 16.0291 75.0488 17.836 76.8226C19.6078 78.6265 21.7514 80.0228 24.1176 80.9141C26.3738 81.7892 28.9541 82.3899 32.731 82.5625C36.5151 82.7352 37.7213 82.7754 47.3564 82.7754C56.9916 82.7754 58.1978 82.7352 61.9818 82.5625C65.7588 82.3899 68.3391 81.7892 70.5953 80.9117C72.9604 80.0225 75.1054 78.6271 76.8792 76.8202C78.6832 75.0485 80.0795 72.9049 80.9707 70.5387C81.8458 68.2824 82.4465 65.7022 82.6192 61.9252C82.7918 58.1411 82.832 56.935 82.832 47.2998C82.832 37.6646 82.7918 36.4585 82.6192 32.6744C82.4465 28.8974 81.8458 26.3172 80.9684 24.0609C80.0777 21.6937 78.6814 19.5492 76.8769 17.777C75.1051 15.973 72.9616 14.5768 70.5953 13.6855C68.3391 12.8128 65.7565 12.2097 61.9795 12.0371C58.1978 11.8668 56.994 11.8242 47.3564 11.8242ZM47.3564 18.2169C56.8284 18.2169 57.9518 18.2524 61.6933 18.4227C65.151 18.5811 67.0288 19.1558 68.2799 19.6454C69.9355 20.2863 71.118 21.0573 72.3596 22.2966C73.6013 23.5383 74.3699 24.7208 75.0108 26.3763C75.498 27.6274 76.0751 29.5053 76.2336 32.9629C76.4039 36.7044 76.4393 37.8278 76.4393 47.2998C76.4393 56.7718 76.4039 57.8952 76.2336 61.6367C76.0751 65.0944 75.5004 66.9722 75.0108 68.2233C74.4431 69.7642 73.5371 71.1583 72.3596 72.303C71.2152 73.4807 69.821 74.3867 68.2799 74.9542C67.0288 75.4414 65.151 76.0185 61.6933 76.1769C57.9518 76.3472 56.8308 76.3827 47.3564 76.3827C37.8821 76.3827 36.7611 76.3472 33.0196 76.1769C29.5619 76.0185 27.6841 75.4438 26.4329 74.9542C24.892 74.3864 23.4979 73.4805 22.3533 72.303C21.1759 71.1582 20.27 69.7642 19.702 68.2233C19.2148 66.9722 18.6378 65.0944 18.4793 61.6367C18.309 57.8952 18.2736 56.7718 18.2736 47.2998C18.2736 37.8278 18.309 36.7044 18.4793 32.9629C18.6378 29.5053 19.2125 27.6274 19.702 26.3763C20.343 24.7208 21.114 23.5383 22.3533 22.2966C23.4978 21.1189 24.8919 20.213 26.4329 19.6454C27.6841 19.1582 29.5619 18.5811 33.0196 18.4227C36.7611 18.2524 37.8845 18.2169 47.3564 18.2169Z" fill="#283277"/>
<path fill-rule="evenodd" clip-rule="evenodd" d="M47.3565 59.1386C45.8021 59.1386 44.2628 58.8325 42.8267 58.2376C41.3906 57.6427 40.0856 56.7708 38.9865 55.6717C37.8873 54.5725 37.0154 53.2676 36.4205 51.8315C35.8257 50.3953 35.5195 48.8561 35.5195 47.3016C35.5195 45.7472 35.8257 44.2079 36.4205 42.7718C37.0154 41.3357 37.8873 40.0308 38.9865 38.9316C40.0856 37.8324 41.3906 36.9605 42.8267 36.3656C44.2628 35.7708 45.8021 35.4646 47.3565 35.4646C50.4959 35.4646 53.5067 36.7117 55.7266 38.9316C57.9464 41.1515 59.1935 44.1623 59.1935 47.3016C59.1935 50.441 57.9464 53.4518 55.7266 55.6717C53.5067 57.8915 50.4959 59.1386 47.3565 59.1386ZM47.3565 29.0672C42.5204 29.0672 37.8824 30.9883 34.4628 34.4079C31.0432 37.8275 29.1221 42.4655 29.1221 47.3016C29.1221 52.1377 31.0432 56.7757 34.4628 60.1953C37.8824 63.615 42.5204 65.5361 47.3565 65.5361C52.1926 65.5361 56.8306 63.615 60.2502 60.1953C63.6698 56.7757 65.591 52.1377 65.591 47.3016C65.591 42.4655 63.6698 37.8275 60.2502 34.4079C56.8306 30.9883 52.1926 29.0672 47.3565 29.0672ZM70.8957 28.7361C70.8957 29.8792 70.4416 30.9756 69.6333 31.7839C68.825 32.5922 67.7286 33.0463 66.5855 33.0463C65.4423 33.0463 64.346 32.5922 63.5376 31.7839C62.7293 30.9756 62.2752 29.8792 62.2752 28.7361C62.2752 27.5929 62.7293 26.4966 63.5376 25.6882C64.346 24.8799 65.4423 24.4258 66.5855 24.4258C67.7286 24.4258 68.825 24.8799 69.6333 25.6882C70.4416 26.4966 70.8957 27.5929 70.8957 28.7361Z" fill="#283277"/>
</svg>
