<svg width="42" height="42" viewBox="0 0 42 42" fill="none" xmlns="http://www.w3.org/2000/svg">
<g id="mail-11">
<g id="Group">
<path id="Vector" d="M35.476 3.99805H6.52403C2.92113 3.99805 0 6.36298 0 9.27986V9.29527L17.9745 22.5669C18.8363 23.2026 19.9098 23.5147 20.9992 23.5159C22.0903 23.5146 23.1622 23.2026 24.0239 22.5669L42 9.29527V9.27986C42 6.36298 39.0788 3.99805 35.476 3.99805Z" fill="#DC2328"/>
<path id="Vector_2" d="M20.9992 27.4766C18.7407 27.4778 16.4646 26.8124 14.6775 25.4933L0 14.6562V32.7171C0 35.6339 2.92113 37.9989 6.52403 37.9989H35.476C39.0788 37.9989 42 35.6339 42 32.7171V14.6562L27.321 25.4933C25.5354 26.8124 23.2594 27.4778 20.9992 27.4766Z" fill="#0C1788"/>
</g>
</g>
</svg>
