<svg width="112" height="113" viewBox="0 0 112 113" fill="none" xmlns="http://www.w3.org/2000/svg">
<path d="M6.51873 108.002C8.50498 110.154 16.6862 106.4 23.1437 103.39C27.9825 101.142 47.3462 93.1967 56.9712 89.0754C59.57 87.9642 63.35 86.5117 66.0712 82.9329C68.4862 79.7479 74.8912 66.2204 61.9937 52.5179C48.9037 38.6054 35.42 42.4467 30.38 46.0167C27.4137 48.1167 24.9987 52.8504 23.9137 55.2567C19.3287 65.4242 12.7925 84.0529 10.1325 91.3767C8.18123 96.7754 4.54998 105.867 6.51873 108.002Z" fill="#FFC107"/>
<path d="M22.6186 58.3193C22.7411 59.8418 23.0473 62.3181 24.0973 67.0868C24.8148 70.3593 25.9873 73.7893 26.9411 76.0556C29.8023 82.8718 33.8186 85.6193 37.8873 87.8243C44.7998 91.5693 49.4986 92.2693 49.4986 92.2693L43.8636 94.5706C43.8636 94.5706 40.4511 93.8618 35.7961 91.5693C31.3598 89.3818 26.7398 85.6806 23.3623 78.4356C21.9011 75.2943 21.0523 72.2493 20.5623 69.8343C19.9586 66.8418 19.8623 65.1443 19.8623 65.1443L22.6186 58.3193Z" fill="#FF8F00"/>
<path d="M15.6972 76.0645C15.6972 76.0645 16.3972 81.7432 21.0872 88.9095C26.5822 97.292 34.256 98.6657 34.256 98.6657L29.1547 100.766C29.1547 100.766 23.4585 99.0245 18.0422 91.6307C14.6647 87.0195 13.7197 81.507 13.7197 81.507L15.6972 76.0645Z" fill="#FF8F00"/>
<path d="M10.8413 89.522C10.8413 89.522 12.1188 94.422 14.9188 98.0795C18.2526 102.446 22.4963 103.714 22.4963 103.714L18.5851 105.447C18.5851 105.447 15.6188 104.826 12.3726 100.713C9.90508 97.5895 9.20508 94.002 9.20508 94.002L10.8413 89.522Z" fill="#FF8F00"/>
<path opacity="0.44" d="M8.71514 101.964C8.54014 101.571 8.54014 101.124 8.72389 100.739L31.0101 54.522L34.6764 68.3032L11.2264 102.174C10.5964 103.119 9.17889 102.997 8.71514 101.964Z" fill="#FFFDE7"/>
<path d="M36.4441 72.9321C46.8566 85.1121 58.7128 83.5896 62.6591 80.5096C66.6141 77.4208 69.7378 66.8071 59.3691 54.8283C48.5016 42.2808 36.1991 45.8596 33.3553 48.5721C30.5116 51.2846 26.8891 61.7583 36.4441 72.9321Z" fill="url(#paint0_linear_1_1417)"/>
<path d="M72.2048 77.9457C68.4073 74.7607 66.386 75.3294 63.6735 76.4582C60.1735 77.9107 54.6698 78.9869 47.1973 76.4582L49.446 71.0419C53.8823 72.5382 57.0935 71.8119 59.8673 70.1757C63.4373 68.0757 68.3198 65.1969 75.9148 71.5757C79.0823 74.2357 82.3285 76.0032 84.7085 75.1982C86.441 74.6207 87.3598 72.0394 87.8235 69.9832C87.8673 69.7994 87.9373 69.2744 87.9898 68.8107C88.4098 65.5994 89.1098 58.6694 94.2723 55.1257C99.7935 51.3369 105.595 51.3369 105.595 51.3369L106.645 61.7669C103.976 61.3732 102.121 61.9157 100.555 62.7819C94.6573 66.0632 99.7935 78.6632 90.6148 82.8982C81.786 87.0019 74.5673 79.9232 72.2048 77.9457Z" fill="#03A9F4"/>
<path d="M39.7246 64.6456L35.9271 61.2419C42.9009 53.4544 41.0634 47.7319 39.7246 43.5669C39.4534 42.7269 39.1996 41.9306 39.0334 41.1694C38.4384 38.4744 38.3159 36.1294 38.4996 34.0819C35.8221 30.7481 34.6409 27.2569 34.5621 27.0206C32.9346 22.0944 34.1596 17.2906 36.9684 12.7844C42.6471 3.64062 52.9284 3.64062 52.9284 3.64062L56.3584 12.8194C53.7509 12.7144 45.2021 12.8456 42.5771 16.9844C39.2609 22.1994 41.4396 25.4194 41.5971 25.7869C42.2359 24.9556 42.8834 24.2906 43.4609 23.7744C47.6521 20.0556 51.2921 19.5219 53.6109 19.7319C56.2184 19.9681 58.5809 21.2806 60.2696 23.4331C62.1159 25.7956 62.8771 28.8669 62.2909 31.6581C61.7221 34.3794 59.9109 36.6806 57.1896 38.1419C52.4384 40.6969 48.4834 40.3469 45.8321 39.4631C45.8496 39.5244 45.8584 39.5944 45.8759 39.6556C45.9721 40.0931 46.1646 40.7056 46.3921 41.4144C47.9409 46.2094 50.8196 53.8219 39.7246 64.6456ZM46.1559 31.8069C46.6634 32.1744 47.1971 32.4806 47.7484 32.6994C49.5859 33.4344 51.5896 33.1894 53.8646 31.9644C55.2034 31.2469 55.3609 30.4769 55.4134 30.2231C55.5709 29.4619 55.3084 28.4906 54.7396 27.7644C54.2409 27.1256 53.6634 26.7931 52.9721 26.7231C51.6596 26.6094 49.8834 27.4406 48.1071 29.0244C47.2584 29.7856 46.6109 30.7219 46.1559 31.8069Z" fill="#F44336"/>
<path d="M54.924 66.0718L49.4902 65.9231C49.4902 65.9231 52.0715 51.3456 60.4277 48.8956C61.994 48.4406 63.709 47.9768 65.4327 47.7231C66.4565 47.5656 68.0752 47.3293 68.8715 47.0318C69.0552 45.6581 68.4777 43.9081 67.8302 41.9218C67.3227 40.3818 66.7977 38.7981 66.5177 37.0656C65.9752 33.6881 66.8765 30.7043 69.0552 28.6481C71.7152 26.1543 76.0115 25.3581 80.859 26.4606C83.624 27.0906 85.6627 28.4468 87.4565 29.6368C90.0202 31.3431 91.5165 32.2093 94.649 30.1006C98.4377 27.5456 93.4852 17.5443 90.8515 11.7693L100.678 7.67432C101.999 10.5618 108.378 25.4193 104.169 33.8981C102.751 36.7506 100.31 38.6406 97.1077 39.3493C90.1427 40.9068 86.0652 38.1943 83.0902 36.2168C81.6815 35.2806 80.4477 34.5456 79.109 34.1606C69.8077 31.5093 82.7927 45.1943 76.7115 51.3456C73.0627 55.0293 64.1465 56.0006 63.569 56.1406C57.829 57.5231 54.924 66.0718 54.924 66.0718Z" fill="#F48FB1"/>
<path d="M38.4912 34.082C38.325 36.007 38.2462 37.1533 38.745 39.6558C41.1512 41.4233 46.3925 41.4233 46.3925 41.4233C46.165 40.7145 45.9637 40.102 45.8762 39.6645C45.8587 39.6033 45.85 39.5333 45.8325 39.472C40.5037 36.812 38.4912 34.082 38.4912 34.082Z" fill="#C92B27"/>
<path d="M27.5885 42.7006L18.541 38.2644L23.0473 31.7544L30.1435 36.4531L27.5885 42.7006Z" fill="#FFC107"/>
<path d="M14.2539 30.4159C9.63391 29.7946 4.92641 25.8746 4.41016 25.4284L8.95141 20.0996C10.3252 21.2634 13.2389 23.2146 15.1902 23.4771L14.2539 30.4159Z" fill="#FB8C00"/>
<path d="M22.4088 18.7517L15.7588 16.573C16.52 14.2455 16.7213 11.7342 16.3275 9.31047L23.24 8.19922C23.8088 11.7167 23.52 15.3655 22.4088 18.7517Z" fill="#03A9F4"/>
<path d="M63.9385 13.55L70.7766 12.0537L72.7515 21.0802L65.9134 22.5765L63.9385 13.55Z" fill="#FB8C00"/>
<path d="M80.9023 15.6894L76.0898 10.6056C78.6098 8.21686 79.1873 5.09311 79.1873 5.05811L86.0998 6.18686C86.0123 6.73811 85.1286 11.6906 80.9023 15.6894Z" fill="#FFC107"/>
<path d="M83.5762 42.6489L89.6898 40.7388L91.7784 47.4203L85.6648 49.3304L83.5762 42.6489Z" fill="#FB8C00"/>
<path d="M85.3563 99.0418L78.4 98.2193C78.6975 95.743 76.8512 92.7068 76.3438 92.033L81.9438 87.833C82.3638 88.3843 86.0125 93.433 85.3563 99.0418Z" fill="#F44336"/>
<path d="M105.324 90.1695C102.708 89.7758 100.03 89.6183 97.3876 89.7145L97.1514 82.7145C100.223 82.6095 103.329 82.7845 106.365 83.2483L105.324 90.1695Z" fill="#FB8C00"/>
<path d="M95.9121 99.8051L100.83 94.8237L107.599 101.506L102.68 106.487L95.9121 99.8051Z" fill="#F48FB1"/>
<path d="M81.4616 55.5552L86.5191 61.3381L80.7362 66.3956L75.6787 60.6127L81.4616 55.5552Z" fill="#F44336"/>
<defs>
<linearGradient id="paint0_linear_1_1417" x1="65.0863" y1="54.25" x2="39.0402" y2="69.8775" gradientUnits="userSpaceOnUse">
<stop offset="0.024" stop-color="#8F4700"/>
<stop offset="1" stop-color="#703E2D"/>
</linearGradient>
</defs>
</svg>
