<svg width="60" height="60" viewBox="0 0 60 60" fill="none" xmlns="http://www.w3.org/2000/svg">
<g clip-path="url(#clip0_835_6035)">
<ellipse cx="30.5" cy="21.5" rx="8.5" ry="13.5" fill="#DC2328"/>
<path d="M30 0C20.0592 0 12 7.9872 12 17.8392C12 27.6924 30 60.0012 30 60.0012C30 60.0012 48 27.6924 48 17.8392C48 7.9872 39.9408 0 30 0ZM29.9412 31.1744C26.8728 31.1744 24.3864 20.7084 24.3864 17.6688C24.3864 14.6268 26.8728 12.162 29.9412 12.162C33.012 12.162 35.4984 14.6268 35.4984 17.6688C35.4984 20.7084 33.012 31.1744 29.9412 31.1744Z" fill="#C9C9C9"/>
</g>
<defs>
<clipPath id="clip0_835_6035">
<rect width="60" height="60" fill="white"/>
</clipPath>
</defs>
</svg>
