<svg width="60" height="60" viewBox="0 0 60 60" fill="none" xmlns="http://www.w3.org/2000/svg">
<path d="M13 35C16.3137 35 19 32.5376 19 29.5C19 26.4624 16.3137 24 13 24C9.68629 24 7 26.4624 7 29.5C7 32.5376 9.68629 35 13 35Z" stroke="#283577" stroke-width="3" stroke-linejoin="round"/>
<path d="M43 17C46.3137 17 49 14.3137 49 11C49 7.68629 46.3137 5 43 5C39.6863 5 37 7.68629 37 11C37 14.3137 39.6863 17 43 17Z" stroke="#283577" stroke-width="3" stroke-linejoin="round"/>
<path d="M37 14L18 26" stroke="#283577" stroke-width="3"/>
<path d="M43 54C46.3137 54 49 51.3137 49 48C49 44.6863 46.3137 42 43 42C39.6863 42 37 44.6863 37 48C37 51.3137 39.6863 54 43 54Z" stroke="#283577" stroke-width="3" stroke-linejoin="round"/>
<path d="M18 34L37 45" stroke="#283577" stroke-width="3"/>
</svg>
