<svg width="46" height="46" viewBox="0 0 46 46" fill="none" xmlns="http://www.w3.org/2000/svg">
<g id="store_svgrepo.com">
<path id="Vector" d="M37.0071 21.1893C38.3761 21.1865 39.7317 20.9258 41 20.4214V39.9189C41 40.4709 40.7761 41.0002 40.3776 41.3905C39.9791 41.7807 39.4386 42 38.875 42H9.125C8.56142 42 8.02091 41.7807 7.6224 41.3905C7.22388 41.0002 7 40.4709 7 39.9189V20.4214C8.71086 21.1102 10.5779 21.3415 12.41 21.0918C14.2421 20.8421 15.9736 20.1202 17.4274 19C19.3405 20.4297 21.6828 21.1995 24.0893 21.1893C26.4373 21.1772 28.7159 20.4078 30.5726 19C32.4122 20.4047 34.6744 21.1744 37.0071 21.1893ZM28.25 31.5946C28.25 30.4908 27.8022 29.4321 27.0052 28.6516C26.2082 27.871 25.1272 27.4325 24 27.4325C22.8728 27.4325 21.7918 27.871 20.9948 28.6516C20.1978 29.4321 19.75 30.4908 19.75 31.5946V37.8379H28.25V31.5946Z" fill="#0C1788"/>
<path id="Vector_2" d="M42.9325 14.6624C43.0611 13.8165 43.0055 12.9546 42.7691 12.1298L40.9837 8.52897C40.8682 8.0922 40.6018 7.70452 40.227 7.4275C39.8521 7.15048 39.3902 7.00001 38.9147 7H8.1176C7.64208 7.00001 7.1802 7.15048 6.80532 7.4275C6.43045 7.70452 6.16408 8.0922 6.04853 8.52897L4.19277 12.3944C3.94603 13.3295 3.93601 14.3065 4.16355 15.2459C4.39108 16.1854 4.84973 17.0606 5.50214 17.8005C6.15455 18.5403 6.98227 19.1237 7.9179 19.5033C8.85353 19.8829 9.87061 20.0478 10.8863 19.9847C12.464 19.8482 13.9385 19.1834 15.0449 18.1098C16.1514 17.0362 16.8173 15.6241 16.9229 14.1274L16.9885 13.3755C16.9154 14.2171 17.0271 15.0639 17.3165 15.8626C17.6065 16.6631 18.0687 17.398 18.6738 18.0208C19.279 18.6436 20.014 19.1407 20.8325 19.4808C21.6509 19.821 22.5349 19.9967 23.4287 19.9968H23.6036C24.4964 19.996 25.3794 19.8201 26.1968 19.4801C27.0143 19.1401 27.7485 18.6434 28.3531 18.0214C28.9577 17.3993 29.4197 16.6654 29.7099 15.8659C30 15.0663 30.1121 14.2186 30.039 13.376L30.1286 14.3859C30.2034 15.2365 30.4652 16.0629 30.8972 16.812C31.3292 17.5611 31.9219 18.2164 32.6371 18.7359C33.3524 19.2553 34.1745 19.6274 35.0506 19.8282C35.9267 20.029 36.8375 20.0541 37.7244 19.9019C38.6084 19.7291 39.4456 19.3868 40.1845 18.8961C40.9234 18.4053 41.5485 17.7765 42.0211 17.0484C42.4937 16.3203 42.8038 15.5083 42.9325 14.6624Z" fill="#DC2328"/>
</g>
</svg>
