<svg width="77" height="78" viewBox="0 0 77 78" fill="none" xmlns="http://www.w3.org/2000/svg">
<g id="store">
<path id="Vector" d="M69.5528 30.7369C69.4853 30.6026 69.4047 30.4752 69.3122 30.3568C69.2422 30.0097 69.1482 29.668 69.0306 29.3341L68.9801 29.2162L62.3629 13.975C62.1755 13.5457 61.867 13.1804 61.475 12.924C61.0831 12.6675 60.6248 12.531 60.1564 12.5313H16.8439C16.3755 12.531 15.9172 12.6675 15.5252 12.924C15.1333 13.1804 14.8247 13.5457 14.6373 13.975L7.97203 29.3293C7.33745 30.9398 7.33745 32.731 7.97203 34.3415C8.5851 35.743 9.47325 37.0071 10.5839 38.0591C11.6945 39.111 13.005 39.9293 14.4376 40.4654V65.4688C14.4376 66.1069 14.6911 66.719 15.1424 67.1702C15.5937 67.6215 16.2057 67.875 16.8439 67.875H60.1564C60.7946 67.875 61.4066 67.6215 61.8579 67.1702C62.3091 66.719 62.5626 66.1069 62.5626 65.4688V40.4654C63.9956 39.9299 65.3064 39.1122 66.4175 38.0607C67.5285 37.0091 68.4171 35.7452 69.0306 34.3439C69.229 33.8377 69.3609 33.3079 69.4228 32.7678C69.5831 32.4565 69.6774 32.1154 69.6998 31.7659C69.7221 31.4165 69.6721 31.0662 69.5528 30.7369ZM57.7501 63.0625H19.2501V41.4062C21.0731 41.4291 22.8791 41.0533 24.5417 40.3052C26.2042 39.557 27.6832 38.4546 28.8751 37.075C30.0806 38.4386 31.5621 39.5305 33.2214 40.2783C34.8808 41.0262 36.6801 41.4129 38.5001 41.4129C40.3202 41.4129 42.1195 41.0262 43.7788 40.2783C45.4381 39.5305 46.9196 38.4386 48.1251 37.075C49.317 38.4546 50.796 39.557 52.4586 40.3052C54.1212 41.0533 55.9271 41.4291 57.7501 41.4062V63.0625ZM64.5791 32.5031C63.9632 33.7762 62.9887 34.8416 61.7755 35.5683C60.5623 36.295 59.1632 36.6514 57.7501 36.5938C55.9988 36.7362 54.2615 36.1858 52.9116 35.0609C51.5617 33.936 50.7071 32.3264 50.5314 30.5781C50.5314 29.9399 50.2779 29.3279 49.8266 28.8766C49.3753 28.4254 48.7633 28.1719 48.1251 28.1719C47.4869 28.1719 46.8749 28.4254 46.4236 28.8766C45.9724 29.3279 45.7189 29.9399 45.7189 30.5781C45.5431 32.3264 44.6885 33.936 43.3386 35.0609C41.9888 36.1858 40.2515 36.7362 38.5001 36.5938C36.7488 36.7362 35.0115 36.1858 33.6616 35.0609C32.3117 33.936 31.4571 32.3264 31.2814 30.5781C31.2814 29.9399 31.0279 29.3279 30.5766 28.8766C30.1253 28.4254 29.5133 28.1719 28.8751 28.1719C28.2369 28.1719 27.6249 28.4254 27.1736 28.8766C26.7224 29.3279 26.4689 29.9399 26.4689 30.5781C26.2931 32.3264 25.4385 33.936 24.0886 35.0609C22.7388 36.1858 21.0015 36.7362 19.2501 36.5938C17.8371 36.6514 16.438 36.295 15.2247 35.5683C14.0115 34.8416 13.0371 33.7762 12.4212 32.5031C12.2599 32.0593 12.2599 31.573 12.4212 31.1292L18.4224 17.3438H58.5779L64.5406 31.0594C64.7272 31.5202 64.7409 32.033 64.5791 32.5031ZM39.6672 42.8043C38.8948 42.6808 38.1078 42.6808 37.3355 42.8043C36.308 42.9743 35.3356 43.3863 34.4988 44.0064C33.662 44.6265 32.9847 45.4368 32.523 46.3703C32.0068 47.3862 31.7358 48.5089 31.7316 49.6484C31.7274 50.7879 31.9902 51.9125 32.4989 52.9322L36.3489 60.6322C36.5485 61.0326 36.8558 61.3695 37.2362 61.6049C37.6166 61.8404 38.0551 61.9651 38.5025 61.9651C38.9499 61.9651 39.3885 61.8404 39.7689 61.6049C40.1493 61.3695 40.4566 61.0326 40.6561 60.6322L44.5061 52.9322C45.0152 51.9126 45.2782 50.788 45.274 49.6484C45.2698 48.5088 44.9986 47.3861 44.4821 46.3703C44.0204 45.4362 43.3429 44.6256 42.5056 44.0054C41.6683 43.3853 40.6953 42.9735 39.6672 42.8043ZM40.1941 50.7714L38.5001 54.1594L36.8158 50.7738C36.6456 50.4292 36.5571 50.05 36.5571 49.6657C36.5571 49.2814 36.6456 48.9022 36.8158 48.5576C36.935 48.2996 37.1147 48.0741 37.3397 47.9003C37.5646 47.7264 37.8281 47.6094 38.1079 47.559C38.2374 47.5363 38.3686 47.5242 38.5001 47.5229C38.6299 47.5232 38.7594 47.5337 38.8875 47.5542C39.1681 47.6041 39.4325 47.7212 39.6579 47.8955C39.8834 48.0698 40.0632 48.2962 40.1821 48.5552C40.3534 48.8994 40.4427 49.2786 40.4431 49.663C40.4435 50.0475 40.355 50.4268 40.1845 50.7714H40.1941Z" fill="#858585"/>
</g>
</svg>
