<svg width="95" height="95" viewBox="0 0 95 95" fill="none" xmlns="http://www.w3.org/2000/svg">
<path d="M78.7589 31.2186C78.807 31.9136 78.807 32.6086 78.807 33.31C78.807 54.6816 62.5372 79.3297 32.7873 79.3297V79.3169C23.999 79.3297 15.3934 76.8123 7.99512 72.0659C9.273 72.2197 10.5573 72.2965 11.8448 72.2997C19.1277 72.3061 26.2025 69.8625 31.9322 65.3627C25.0111 65.2313 18.942 60.7187 16.8218 54.1308C19.2462 54.5984 21.7443 54.5023 24.124 53.8521C16.5784 52.3276 11.1498 45.698 11.1498 37.9987C11.1498 37.9283 11.1498 37.861 11.1498 37.7938C13.3981 39.046 15.9154 39.741 18.4904 39.8179C11.3836 35.0683 9.19293 25.6139 13.4846 18.222C21.6963 28.3266 33.8121 34.4694 46.8183 35.1195C45.5148 29.502 47.2955 23.6154 51.4975 19.6664C58.0118 13.5429 68.2573 13.8567 74.3808 20.3678C78.0031 19.6536 81.4748 18.3245 84.6519 16.4413C83.4445 20.1853 80.9176 23.3656 77.5419 25.3865C80.7478 25.0086 83.8801 24.1502 86.8298 22.8403C84.6583 26.0943 81.9232 28.9287 78.7589 31.2186Z" fill="#283277"/>
</svg>
