<svg width="50" height="50" viewBox="0 0 50 50" fill="none" xmlns="http://www.w3.org/2000/svg">
<path id="Vector" fill-rule="evenodd" clip-rule="evenodd" d="M25 0C11.1929 0 0 11.1929 0 25C0 38.807 11.1929 50 25 50C38.807 50 50 38.807 50 25C50 11.1929 38.807 0 25 0ZM34.8003 18.1044C35.6265 16.2615 33.7385 14.3735 31.8955 15.1997L16.7319 21.9972C14.4993 22.998 14.4036 26.1322 16.5708 27.2675L19.7453 28.9302C20.3113 29.2267 20.7733 29.6887 21.0698 30.2547L22.7325 33.4293C23.8678 35.5965 27.002 35.5007 28.0028 33.2682L34.8003 18.1044Z" fill="#DC2328"/>
</svg>
