<svg width="59" height="59" viewBox="0 0 59 59" fill="none" xmlns="http://www.w3.org/2000/svg">
<path id="Vector" fill-rule="evenodd" clip-rule="evenodd" d="M59 29.5C59 53.7932 53.7933 59 29.5 59C5.20675 59 -2.27594e-07 53.7933 -1.28949e-06 29.5C-2.35138e-06 5.20675 5.20675 3.5871e-06 29.5 2.52521e-06C53.7933 1.46332e-06 59 5.20675 59 29.5ZM32.6784 17.9284L22.845 27.7617C21.885 28.7217 21.885 30.2783 22.845 31.2383L32.6784 41.0716C33.6384 42.0317 35.195 42.0317 36.155 41.0716C37.1149 40.1116 37.1149 38.5551 36.155 37.595L28.0599 29.5L36.155 21.405C37.1149 20.445 37.1149 18.8884 36.155 17.9284C35.195 16.9684 33.6384 16.9684 32.6784 17.9284Z" fill="#1E4489"/>
</svg>
