<svg width="95" height="95" viewBox="0 0 95 95" fill="none" xmlns="http://www.w3.org/2000/svg">
<path d="M47.5365 12.9688C28.0638 12.9688 12.2165 28.2324 12.2096 46.991C12.2051 52.9898 13.8347 58.8444 16.9245 64.001L11.9121 81.6312L30.6409 76.9003C35.8506 79.6255 41.6433 81.047 47.5227 81.043H47.5365C67.0091 81.043 82.8564 65.777 82.8633 47.0184C82.8679 37.9321 79.1967 29.3791 72.525 22.95C65.8556 16.5186 56.9867 12.971 47.5365 12.9688ZM47.5365 75.2959H47.525C42.2563 75.2959 37.0883 73.9318 32.5795 71.3547L31.5038 70.7413L20.3942 73.5473L23.3604 63.1106L22.6624 62.0418C19.7302 57.5699 18.1694 52.3384 18.1718 46.991C18.1787 31.3977 31.3527 18.7158 47.5479 18.7158C55.3892 18.7181 62.7612 21.6637 68.3068 27.0079C73.8525 32.3522 76.9034 39.4587 76.8988 47.0162C76.8919 62.6094 63.7202 75.2959 47.5342 75.2959H47.5365ZM63.6424 54.1136C62.7589 53.6901 58.4195 51.6326 57.6092 51.3465C56.8013 51.065 56.2131 50.9185 55.6249 51.7699C55.039 52.6213 53.3453 54.537 52.8326 55.1023C52.3154 55.6699 51.8004 55.7386 50.9169 55.3152C50.0335 54.8895 47.1886 53.9923 43.8195 51.0947C41.1943 48.8426 39.4229 46.0595 38.9079 45.2058C38.3929 44.3566 38.853 43.8966 39.2947 43.4732C39.6906 43.0955 40.1781 42.4822 40.6176 41.9855C41.057 41.4888 41.2035 41.1341 41.501 40.5665C41.794 40.0011 41.6475 39.5022 41.4255 39.0788C41.2035 38.6508 39.4412 34.467 38.7019 32.7664C37.9878 31.1094 37.26 31.3314 36.7176 31.3039C36.2026 31.281 35.6167 31.2742 35.0239 31.2742C34.4402 31.2742 33.4813 31.487 32.671 32.3384C31.8631 33.1898 29.5812 35.2451 29.5812 39.429C29.5812 43.6151 32.7443 47.657 33.186 48.2246C33.6277 48.7899 39.4114 57.3796 48.2666 61.0645C50.3722 61.9365 52.0155 62.4606 53.2995 62.8543C55.4143 63.502 57.3392 63.4082 58.8589 63.1907C60.5526 62.9458 64.0818 61.1354 64.8142 59.1511C65.5512 57.1668 65.5512 55.4639 65.3315 55.1092C65.1163 54.7544 64.5258 54.5416 63.6424 54.1136Z" fill="#283277"/>
</svg>
